<svg xmlns="http://www.w3.org/2000/svg" width="132" height="130" viewBox="0 0 132 130">
  <g id="less-cost.html" transform="translate(-894 -1724)">
    <ellipse id="Ellipse_31" data-name="Ellipse 31" cx="66" cy="65" rx="66" ry="65" transform="translate(894 1724)" fill="rgba(0,188,197,0.3)"/>
    <g id="XMLID_1083_" transform="translate(930.127 1757.386)">
      <g id="XMLID_169_" transform="translate(0 0)">
        <path id="XMLID_191_" d="M60.777,36.258a1.275,1.275,0,0,0,0,2.55,1.952,1.952,0,0,1,0,3.9H58.359a23.194,23.194,0,0,0-12.2-19.177,13.822,13.822,0,0,0,.126-1.849,13.642,13.642,0,0,0-27.284,0c0,.293.012.585.03.876l-.068.028-5.647-3.275A2.32,2.32,0,0,0,9.829,21.32v8.172A23,23,0,0,0,6.015,36.4H3.538A3.542,3.542,0,0,0,0,39.939v8.1a3.542,3.542,0,0,0,3.538,3.538H6.015a23.294,23.294,0,0,0,8.477,11.319v5.673A2.709,2.709,0,0,0,17.2,71.271h4.751A2.7,2.7,0,0,0,24.355,69.8l1.4-2.716c.732.069,1.468.1,2.2.1h7.24c.729,0,1.465-.035,2.2-.1l1.4,2.716a2.7,2.7,0,0,0,2.406,1.468H45.94a2.709,2.709,0,0,0,2.706-2.706V62.892a23.176,23.176,0,0,0,9.711-17.63h2.42a4.5,4.5,0,0,0,0-9ZM32.639,10.593A11.093,11.093,0,0,1,42.265,27.2a19.936,19.936,0,0,0-5.85-2.094,3.725,3.725,0,0,0,.454-1.779,4.1,4.1,0,0,0-4.229-3.956,1.563,1.563,0,0,1-1.679-1.406,1.706,1.706,0,0,1,3.358,0,1.275,1.275,0,1,0,2.55,0,4,4,0,0,0-2.954-3.772v-.177a1.275,1.275,0,1,0-2.55,0v.177a4,4,0,0,0-2.954,3.772,4.1,4.1,0,0,0,4.229,3.956,1.563,1.563,0,0,1,1.679,1.406,1.706,1.706,0,0,1-3.358,0,1.275,1.275,0,0,0-2.55,0,3.725,3.725,0,0,0,.456,1.784,19.929,19.929,0,0,0-5.845,2.1,11.093,11.093,0,0,1,9.618-16.619ZM46.662,61.164a1.275,1.275,0,0,0-.566,1.06v6.342a.156.156,0,0,1-.156.156H41.189a.156.156,0,0,1-.139-.085l-1.8-3.5a1.274,1.274,0,0,0-1.3-.681,20.963,20.963,0,0,1-2.759.184h-7.24a20.963,20.963,0,0,1-2.759-.184,1.273,1.273,0,0,0-1.3.681l-1.8,3.5a.155.155,0,0,1-.139.085H17.2a.156.156,0,0,1-.156-.156V62.223a1.275,1.275,0,0,0-.566-1.06A20.723,20.723,0,0,1,8.164,49.931a1.275,1.275,0,0,0-1.221-.909h-3.4a.989.989,0,0,1-.988-.988V45.261H4.335a1.275,1.275,0,1,0,0-2.55H2.55V39.938a.989.989,0,0,1,.988-.988h3.4a1.275,1.275,0,0,0,1.221-.909,20.492,20.492,0,0,1,3.918-7.278,1.275,1.275,0,0,0,.3-.817V21.72l5.86,3.4a1.275,1.275,0,0,0,1.168.058l.038-.017a13.488,13.488,0,0,0,1.424,3.422,20.064,20.064,0,0,0-2.36,2.02,1.275,1.275,0,0,0,1.8,1.8A17.477,17.477,0,0,1,45,32.4a1.275,1.275,0,1,0,1.8-1.8,20.067,20.067,0,0,0-2.383-2.037,13.5,13.5,0,0,0,1.126-2.451,20.658,20.658,0,0,1,1.116,35.05Z" transform="translate(0 -8.043)" fill="#00bcc5"/>
        <path id="XMLID_733_" d="M114.945,219.96a1.275,1.275,0,1,0,.9.374A1.277,1.277,0,0,0,114.945,219.96Z" transform="translate(-99.177 -192.941)" fill="#00bcc5"/>
      </g>
    </g>
  </g>
</svg>
