<svg xmlns="http://www.w3.org/2000/svg" width="67.349" height="74.747" viewBox="0 0 67.349 74.747">
  <path id="care-navigator" d="M1112.711,4101.2h-55a6.181,6.181,0,0,1-6.174-6.175,36.869,36.869,0,0,1,1.173-6.506c1.185-4.579,11.238-8.074,20.916-10.887l1.289-.379c.828-.246,1.778-2.824,1.973-6.63a12.937,12.937,0,0,1-2.8-3.375c-.257-.422-.512-.824-.766-1.219a25.9,25.9,0,0,1-2.464-4.559,3.9,3.9,0,0,1-2.009-1.772c-1.581-2.9-2.5-7.546-1.847-9.381a2.581,2.581,0,0,1,1.718-1.624c0-6.84,2.267-11.154,4.639-13.8a1.368,1.368,0,0,1,.061-.724c.627-2.269,2.825-3.322,5.037-3.61a4.471,4.471,0,0,1,.325-1.283c.4-1,1.425-2.569,2.586-2.8a1.29,1.29,0,0,1,1.525,1.051,3.946,3.946,0,0,0,2.052,1.129,47.435,47.435,0,0,1,6.417,2.241c6.514,2.579,10.346,9.216,10.344,17.863a2.564,2.564,0,0,1,1.542,1.563c.649,1.838-.268,6.486-1.852,9.387a4,4,0,0,1-1.85,1.722,26.62,26.62,0,0,1-2.5,4.6c-.263.416-.534.834-.805,1.278a13.884,13.884,0,0,1-2.5,3.177c.1,3.526.891,6.4,1.9,6.808,1.758.712,3.982,1.4,6.336,2.119,7.134,2.194,14.508,4.464,15.69,9.109,1,3.94,1.222,5.1,1.222,6.5a6.182,6.182,0,0,1-6.177,6.175ZM1069.988,4051a.918.918,0,0,0-.562.128c-.3.861.274,4.715,1.69,7.308a1.262,1.262,0,0,0,.749.633,1.3,1.3,0,0,1,1.169.855,22.085,22.085,0,0,0,2.465,4.715c.26.41.523.827.79,1.263a9.684,9.684,0,0,0,2.647,3.033,1.281,1.281,0,0,1,.554,1.093c-.069,2.588-.584,8.714-3.832,9.684l-1.308.385c-12.053,3.5-18.493,6.551-19.143,9.06a35.988,35.988,0,0,0-1.095,5.944,3.592,3.592,0,0,0,3.6,3.519h55a3.605,3.605,0,0,0,3.6-3.6c0-1.074-.149-1.974-1.141-5.866-.827-3.247-8.107-5.488-13.954-7.286-2.409-.74-4.684-1.44-6.545-2.2-3.007-1.216-3.491-6.646-3.513-9.773a1.289,1.289,0,0,1,.5-1.028,10.511,10.511,0,0,0,2.387-2.907c.282-.461.561-.9.835-1.327a23.137,23.137,0,0,0,2.487-4.7,1.283,1.283,0,0,1,1.026-.828,1.328,1.328,0,0,0,.744-.638c1.414-2.593,1.987-6.431,1.683-7.3a.953.953,0,0,0-.449-.084,1.276,1.276,0,0,1-.908-.4,1.29,1.29,0,0,1-.352-.933c.3-8.16-2.884-14.171-8.742-16.489a44.94,44.94,0,0,0-6.112-2.137,7.47,7.47,0,0,1-2.815-1.429,3.059,3.059,0,0,0-.4.954.65.65,0,0,0,0,.377,1.288,1.288,0,0,1-1.135,2.018l-.134,0a6.161,6.161,0,0,0-3.111.79,1.562,1.562,0,0,1,.082.154,1.288,1.288,0,0,1-.327,1.5c-2.485,2.165-5.385,6.4-5.1,14.261a1.2,1.2,0,0,1-.372.911,1.307,1.307,0,0,1-.95.338h-.009Z" transform="translate(-1051.54 -4026.449)" fill="#00bcc5"/>
</svg>
