<svg xmlns="http://www.w3.org/2000/svg" width="40.703" height="77.859" viewBox="0 0 40.703 77.859">
  <g id="communication" transform="translate(-1149.878 -2207.309)">
    <path id="Path_171" data-name="Path 171" d="M1168.663,6634.319H1135.1a3.575,3.575,0,0,1-3.571-3.57V6560.03a3.575,3.575,0,0,1,3.571-3.57h33.562a3.575,3.575,0,0,1,3.571,3.57v70.719A3.575,3.575,0,0,1,1168.663,6634.319Zm-33.562-75.513a1.225,1.225,0,0,0-1.222,1.224v70.719a1.225,1.225,0,0,0,1.222,1.224h33.562a1.225,1.225,0,0,0,1.222-1.224V6560.03a1.225,1.225,0,0,0-1.222-1.224Z" transform="translate(18.348 -4349.15)" fill="#00bcc5"/>
    <path id="Path_172" data-name="Path 172" d="M1189.082,6681.618h-27.324v-49.841h27.324Zm2.348-52.188H1159.41v54.537h32.021Z" transform="translate(-5.19 -4410.758)" fill="#00bcc5"/>
    <path id="Path_173" data-name="Path 173" d="M1233.9,6593.207H1221.09v-2.346H1233.9Z" transform="translate(-57.267 -4378.194)" fill="#00bcc5"/>
    <path id="Path_174" data-name="Path 174" d="M1257.037,7003.6h-2.347v-2.347h2.347Z" transform="translate(-85.634 -4724.679)" fill="#00bcc5"/>
    <path id="Path_175" data-name="Path 175" d="M1209.739,6754.206H1203.7a1.173,1.173,0,0,1-1.174-1.174v-4.867h-4.868a1.175,1.175,0,0,1-1.174-1.174v-6.042a1.171,1.171,0,0,1,1.174-1.172h4.868V6734.9a1.173,1.173,0,0,1,1.174-1.174h6.044a1.173,1.173,0,0,1,1.173,1.174v4.871h4.871a1.17,1.17,0,0,1,1.173,1.172v6.042a1.174,1.174,0,0,1-1.173,1.174h-4.871v4.867A1.172,1.172,0,0,1,1209.739,6754.206Zm-4.868-2.347h3.694v-4.871a1.173,1.173,0,0,1,1.174-1.174h4.868v-3.694h-4.868a1.173,1.173,0,0,1-1.174-1.174v-4.868h-3.694v4.868a1.174,1.174,0,0,1-1.174,1.174h-4.868v3.694h4.868a1.173,1.173,0,0,1,1.174,1.174Z" transform="translate(-36.488 -4498.816)" fill="#00bcc5"/>
  </g>
</svg>
