<svg xmlns="http://www.w3.org/2000/svg" width="62.387" height="64.167" viewBox="0 0 62.387 64.167">
  <g id="costs" transform="translate(-1142.09 -2086.302)">
    <path id="Path_177" data-name="Path 177" d="M1204.354,5871.511a8.039,8.039,0,0,1-3.526-.857l-.542-.268-.727,2.488.361.2a9.212,9.212,0,0,0,3.842.935v1.672h2.221v-1.832c2.654-.444,4.366-2.238,4.366-4.578,0-2.246-1.26-3.669-4.209-4.759-2.381-.939-3.105-1.512-3.105-2.453,0-1.085.9-1.731,2.4-1.731a7.231,7.231,0,0,1,3.022.646l.528.233.729-2.448-.416-.179a8.5,8.5,0,0,0-3.166-.671v-1.837h-2.219v1.97c-2.569.467-4.164,2.141-4.164,4.374,0,2.105,1.347,3.482,4.505,4.609,2.448.88,2.786,1.735,2.786,2.526,0,1.191-1.057,1.96-2.691,1.96Z" transform="translate(-39.088 -3757.825)" fill="#00bcc5"/>
    <path id="Path_178" data-name="Path 178" d="M1174.128,6008.53h-27.2v2.536h27.2Z" transform="translate(5.346 -3886.545)" fill="#00bcc5"/>
    <path id="Path_179" data-name="Path 179" d="M1174.128,6052.82h-27.2v2.536h27.2Z" transform="translate(5.346 -3923.938)" fill="#00bcc5"/>
    <path id="Path_180" data-name="Path 180" d="M1135.036,5779.37h-44.765a8.76,8.76,0,0,0-8.751,8.748v52.7a2.121,2.121,0,0,0,3.616,1.5l5.341-5.312,5.945,5.913a2.127,2.127,0,0,0,2.99,0l5.945-5.913,5.945,5.913a2.182,2.182,0,0,0,2.991,0l5.945-5.913,5.34,5.313a2.12,2.12,0,0,0,3.614-1.5v-38.636h13.2a1.517,1.517,0,0,0,1.517-1.514v-12.43A8.881,8.881,0,0,0,1135.036,5779.37Zm-7.244,3.753a8.817,8.817,0,0,0-1.629,5.023v50.482l-4.172-4.148a2.493,2.493,0,0,0-3.507,0l-5.689,5.655-5.685-5.655a2.492,2.492,0,0,0-3.505,0l-5.688,5.655-5.688-5.655a2.493,2.493,0,0,0-3.507,0l-4.172,4.15v-50.515a5.725,5.725,0,0,1,5.718-5.718H1128.3l-.512.723Zm13.085,16.033h-11.684v-10.913a5.842,5.842,0,1,1,11.684,0Z" transform="translate(60.57 -3693.069)" fill="#00bcc5"/>
  </g>
</svg>
