<svg xmlns="http://www.w3.org/2000/svg" width="68.309" height="73.189" viewBox="0 0 68.309 73.189">
  <g id="health-data" transform="translate(-1136.642 -1948.815)">
    <path id="Path_221" data-name="Path 221" d="M1111.18,4903.779h-60.991a3.659,3.659,0,0,1,0-7.319h60.991a3.659,3.659,0,1,1,0,7.319Zm-60.991-4.878a1.219,1.219,0,1,0,0,2.438h60.991a1.219,1.219,0,1,0,0-2.438Z" transform="translate(90.112 -2947.645)" fill="#00bcc5"/>
    <path id="Path_222" data-name="Path 222" d="M1319.718,5290.115a1.22,1.22,0,0,1-1.2-1.019l-1.85-11.642a1.22,1.22,0,0,1,2.407-.4l1.847,11.64a1.217,1.217,0,0,1-1,1.4,1.134,1.134,0,0,1-.2.017Z" transform="translate(-137.945 -3268.111)" fill="#00bcc5"/>
    <path id="Path_223" data-name="Path 223" d="M1188.761,5292.5a1.09,1.09,0,0,1-.2-.017,1.217,1.217,0,0,1-1-1.4l1.936-11.2a1.219,1.219,0,1,1,2.4.4l-1.936,11.2a1.22,1.22,0,0,1-1.2,1.019Z" transform="translate(-28.94 -3270.492)" fill="#00bcc5"/>
    <path id="Path_224" data-name="Path 224" d="M1104.508,5024.238h-9.759a1.219,1.219,0,0,1,0-2.438h9.759a1.219,1.219,0,0,1,0,2.438Z" transform="translate(50.43 -3053.467)" fill="#00bcc5"/>
    <path id="Path_225" data-name="Path 225" d="M1104.508,4992.9h-9.759a1.219,1.219,0,0,1,0-2.439h9.759a1.219,1.219,0,0,1,0,2.439Z" transform="translate(50.43 -3027.007)" fill="#00bcc5"/>
    <path id="Path_226" data-name="Path 226" d="M1124.41,4986.737h-60.99a1.218,1.218,0,0,1-1.219-1.219V4932.37a1.219,1.219,0,1,1,2.439,0V4984.3h58.55V4932.37a1.219,1.219,0,1,1,2.439,0v53.148a1.218,1.218,0,0,1-1.219,1.219Z" transform="translate(76.882 -2976.933)" fill="#00bcc5"/>
    <path id="Path_227" data-name="Path 227" d="M1220.089,5090.755a1.218,1.218,0,0,1-1.219-1.219v-19.517a1.219,1.219,0,0,1,2.439,0v19.517A1.218,1.218,0,0,1,1220.089,5090.755Z" transform="translate(-55.392 -3093.148)" fill="#00bcc5"/>
    <path id="Path_228" data-name="Path 228" d="M1188.749,5117.206a1.218,1.218,0,0,1-1.219-1.219v-14.638a1.219,1.219,0,0,1,2.439,0v14.638A1.218,1.218,0,0,1,1188.749,5117.206Z" transform="translate(-28.932 -3119.599)" fill="#00bcc5"/>
    <path id="Path_229" data-name="Path 229" d="M1157.419,5143.658a1.218,1.218,0,0,1-1.219-1.219v-9.759a1.219,1.219,0,1,1,2.439,0v9.759A1.218,1.218,0,0,1,1157.419,5143.658Z" transform="translate(-2.48 -3146.051)" fill="#00bcc5"/>
    <path id="Path_230" data-name="Path 230" d="M1094.749,5170.117a1.218,1.218,0,0,1-1.219-1.219v-4.879a1.219,1.219,0,0,1,2.439,0v4.879A1.218,1.218,0,0,1,1094.749,5170.117Z" transform="translate(50.43 -3172.51)" fill="#00bcc5"/>
    <path id="Path_231" data-name="Path 231" d="M1126.089,5130.436a1.218,1.218,0,0,1-1.219-1.219v-12.2a1.219,1.219,0,1,1,2.439,0v12.2A1.218,1.218,0,0,1,1126.089,5130.436Z" transform="translate(23.971 -3132.829)" fill="#00bcc5"/>
    <path id="Path_232" data-name="Path 232" d="M1114.276,5227.9h-19.516a1.219,1.219,0,0,1,0-2.439h19.516a1.219,1.219,0,0,1,0,2.439Z" transform="translate(50.422 -3225.413)" fill="#00bcc5"/>
    <path id="Path_233" data-name="Path 233" d="M1302.406,4995l-7.739,8.362-5.819-2.5a1.222,1.222,0,0,0-1.314.194l-6.824,5.735a1.219,1.219,0,0,0,.8,2.135,1.2,1.2,0,0,0,.807-.305l6.227-5.211,5.894,2.531a1.219,1.219,0,0,0,1.4-.269l7.993-8.63A4.564,4.564,0,0,1,1302.406,4995Z" transform="translate(-107.252 -3030.84)" fill="#00bcc5"/>
    <path id="Path_234" data-name="Path 234" d="M1390.687,4999.006a1.218,1.218,0,0,1-1.219-1.219v-4.878h-4.879a1.219,1.219,0,0,1,0-2.438h6.1a1.218,1.218,0,0,1,1.219,1.219v6.1a1.218,1.218,0,0,1-1.219,1.22Z" transform="translate(-194.276 -3027.015)" fill="#00bcc5"/>
    <line id="Line_33" data-name="Line 33" x2="21.956" transform="translate(1174.455 1986.63)" fill="none"/>
    <path id="Path_235" data-name="Path 235" d="M1304.706,5133.9h-21.956a1.219,1.219,0,0,1,0-2.439h21.956a1.219,1.219,0,0,1,0,2.439Z" transform="translate(-108.294 -3146.051)" fill="#00bcc5"/>
    <line id="Line_34" data-name="Line 34" x2="21.956" transform="translate(1174.455 1991.507)" fill="none"/>
    <path id="Path_236" data-name="Path 236" d="M1304.706,5165.238h-21.956a1.219,1.219,0,0,1,0-2.438h21.956a1.219,1.219,0,0,1,0,2.438Z" transform="translate(-108.294 -3172.51)" fill="#00bcc5"/>
    <line id="Line_35" data-name="Line 35" x2="21.956" transform="translate(1174.455 1996.387)" fill="none"/>
    <path id="Path_237" data-name="Path 237" d="M1304.706,5196.568h-21.956a1.219,1.219,0,0,1,0-2.438h21.956a1.219,1.219,0,0,1,0,2.438Z" transform="translate(-108.294 -3198.962)" fill="#00bcc5"/>
    <line id="Line_36" data-name="Line 36" x2="14.638" transform="translate(1174.455 2001.268)" fill="none"/>
    <path id="Path_238" data-name="Path 238" d="M1297.387,5227.9h-14.638a1.219,1.219,0,0,1,0-2.439h14.638a1.219,1.219,0,0,1,0,2.439Z" transform="translate(-108.294 -3225.413)" fill="#00bcc5"/>
  </g>
</svg>
