<svg xmlns="http://www.w3.org/2000/svg" width="72.946" height="74.144" viewBox="0 0 72.946 74.144">
  <g id="low-cost" transform="translate(-1134.67 -2327.422)">
    <path id="Path_181" data-name="Path 181" d="M1073.707,7643.914a5.418,5.418,0,0,1-1.708-.277l-25.644-8.507a3.53,3.53,0,0,0-2.682.195l-8.177,4.009a1.13,1.13,0,1,1-.995-2.029l8.166-4.005a5.816,5.816,0,0,1,4.4-.315l25.644,8.506a3.184,3.184,0,0,0,1.849.044l1.229-.339a6.081,6.081,0,0,0,2.031-.991l25.871-19.216a2.137,2.137,0,0,0,.8-2.234l-.248-.986a1.461,1.461,0,0,0-1.419-1.11.647.647,0,0,0-.346.1L1078,7631.9a1.131,1.131,0,0,1-1.138.028l-8.839-4.855a1.13,1.13,0,1,1,1.09-1.981l8.258,4.539,23.92-14.8a2.919,2.919,0,0,1,1.537-.437,3.718,3.718,0,0,1,3.613,2.82l.249.986a4.4,4.4,0,0,1-1.644,4.6l-25.871,19.214a8.359,8.359,0,0,1-2.78,1.356l-1.222.339a5.416,5.416,0,0,1-1.461.2Z" transform="translate(100.801 -5242.35)" fill="#00bcc5"/>
    <path id="Path_182" data-name="Path 182" d="M1079.829,7627.74l-6-.21a1.13,1.13,0,1,1,.078-2.258l5.939.21,14.672-.254a1.568,1.568,0,0,0,1.536-1.436l.134-1.534a1.264,1.264,0,0,0-1.1-1.363l-28.286-3.584a3.755,3.755,0,0,0-1.648.162l-16.469,5.611a1.13,1.13,0,0,1-.729-2.14l16.472-5.612a5.977,5.977,0,0,1,2.658-.263l28.286,3.583a3.515,3.515,0,0,1,3.068,3.8l-.132,1.535a3.828,3.828,0,0,1-3.748,3.5l-14.731.25Z" transform="translate(89.553 -5242.873)" fill="#00bcc5"/>
    <path id="Path_183" data-name="Path 183" d="M1342.041,7615.119a1.13,1.13,0,0,1-.417-2.18l10.989-4.36a3.909,3.909,0,0,1,2.619-.018,4.5,4.5,0,0,1,3.009,4.242v.354a1.13,1.13,0,1,1-2.26,0v-.354a2.237,2.237,0,0,0-1.5-2.109,1.619,1.619,0,0,0-1.078,0l-10.947,4.345a1.12,1.12,0,0,1-.417.081Z" transform="translate(-158.429 -5237.236)" fill="#00bcc5"/>
    <path id="Path_184" data-name="Path 184" d="M1225.876,7413.779a4.035,4.035,0,1,1,0-8.069h4.228a4.04,4.04,0,0,1,4.036,4.037,1.13,1.13,0,0,1-2.259,0,1.778,1.778,0,0,0-1.777-1.777h-4.228a1.775,1.775,0,1,0,0,3.551,1.13,1.13,0,1,1,0,2.259Z" transform="translate(-57.899 -5066.156)" fill="#00bcc5"/>
    <path id="Path_185" data-name="Path 185" d="M1230.114,7451.1h-4.228a4.04,4.04,0,0,1-4.036-4.035,1.13,1.13,0,1,1,2.26,0,1.777,1.777,0,0,0,1.777,1.775h4.228a1.774,1.774,0,1,0,0-3.549h-4.228a1.13,1.13,0,1,1,0-2.259h4.228a4.035,4.035,0,0,1,0,8.07Z" transform="translate(-57.907 -5097.664)" fill="#00bcc5"/>
    <path id="Path_186" data-name="Path 186" d="M1255.219,7393.279a1.128,1.128,0,0,1-1.129-1.13v-2.708a1.129,1.129,0,1,1,2.258,0v2.708A1.129,1.129,0,0,1,1255.219,7393.279Z" transform="translate(-85.127 -5051.466)" fill="#00bcc5"/>
    <path id="Path_187" data-name="Path 187" d="M1255.219,7485.3a1.128,1.128,0,0,1-1.129-1.129v-2.71a1.129,1.129,0,1,1,2.258,0v2.71A1.129,1.129,0,0,1,1255.219,7485.3Z" transform="translate(-85.127 -5129.157)" fill="#00bcc5"/>
    <path id="Path_188" data-name="Path 188" d="M1157.941,7365.943a19.072,19.072,0,1,1,19.073-19.072A19.093,19.093,0,0,1,1157.941,7365.943Zm0-35.883a16.812,16.812,0,1,0,16.813,16.811A16.83,16.83,0,0,0,1157.941,7330.06Z" transform="translate(12.15 -5000.378)" fill="#00bcc5"/>
  </g>
</svg>
