<svg xmlns="http://www.w3.org/2000/svg" width="68.126" height="72.994" viewBox="0 0 68.126 72.994">
  <g id="setgoals" transform="translate(-1136.644 -2458.795)">
    <path id="Path_189" data-name="Path 189" d="M1096.427,8281.583H1050.2a1.218,1.218,0,0,1-1.218-1.216v-58.4a1.22,1.22,0,0,1,1.218-1.218h46.228a1.221,1.221,0,0,1,1.218,1.218v14.6a1.217,1.217,0,0,0,2.434,0v-14.6a3.655,3.655,0,0,0-3.65-3.65H1050.2a3.655,3.655,0,0,0-3.65,3.65v58.4a3.653,3.653,0,0,0,3.65,3.647h46.228a1.217,1.217,0,1,0,0-2.434Z" transform="translate(90.094 -5752.228)" fill="#00bcc5"/>
    <path id="Path_190" data-name="Path 190" d="M1079,8293.009a1.216,1.216,0,0,1-1.216-1.216v-41.007a1.216,1.216,0,0,1,1.216-1.216h11.7a1.217,1.217,0,0,1,0,2.434h-10.48v39.789A1.216,1.216,0,0,1,1079,8293.009Z" transform="translate(63.728 -5778.611)" fill="#00bcc5"/>
    <path id="Path_191" data-name="Path 191" d="M1192.026,8181.182a4.866,4.866,0,1,1,4.866-4.866A4.873,4.873,0,0,1,1192.026,8181.182Zm0-7.3a2.432,2.432,0,1,0,2.432,2.431A2.433,2.433,0,0,0,1192.026,8173.885Z" transform="translate(-28.619 -5712.655)" fill="#00bcc5"/>
    <path id="Path_192" data-name="Path 192" d="M1174.15,8214.864h-17.033a1.215,1.215,0,0,1-1.218-1.217v-7.3a3.654,3.654,0,0,1,3.65-3.648h12.166a3.653,3.653,0,0,1,3.649,3.648v7.3A1.213,1.213,0,0,1,1174.15,8214.864Z" transform="translate(-2.228 -5739.04)" fill="#00bcc5"/>
    <path id="Path_193" data-name="Path 193" d="M1091.16,8529.81a1.221,1.221,0,0,1-.861-.356l-12.167-12.167a1.217,1.217,0,0,1,.861-2.076h12.166a1.215,1.215,0,0,1,1.216,1.215v12.168a1.218,1.218,0,0,1-.751,1.122,1.168,1.168,0,0,1-.466.094Z" transform="translate(63.729 -6002.886)" fill="#00bcc5"/>
    <path id="Path_194" data-name="Path 194" d="M1176.414,8593.33h-19.3a1.217,1.217,0,1,0,0,2.435h19.3a1.217,1.217,0,1,0,0-2.435Z" transform="translate(-2.228 -6068.841)" fill="#00bcc5"/>
    <path id="Path_195" data-name="Path 195" d="M1280.064,8252v10.951a1.216,1.216,0,1,0,2.432,0v-12.167a1.217,1.217,0,0,0-1.214-1.218H1269.6a1.217,1.217,0,1,0,0,2.434Z" transform="translate(-97.192 -5778.611)" fill="#00bcc5"/>
    <path id="Path_196" data-name="Path 196" d="M1113.061,8458.932h-.026a1.216,1.216,0,0,1-.9-.422l-2.8-3.275a1.215,1.215,0,1,1,1.844-1.583l1.925,2.242,3.87-4.12a1.217,1.217,0,0,1,1.774,1.667l-4.8,5.106a1.213,1.213,0,0,1-.886.383Z" transform="translate(37.337 -5949.004)" fill="#00bcc5"/>
    <path id="Path_197" data-name="Path 197" d="M1113.061,8380.812h-.026a1.215,1.215,0,0,1-.9-.421l-2.8-3.276a1.215,1.215,0,1,1,1.844-1.583l1.925,2.243,3.87-4.121a1.217,1.217,0,0,1,1.774,1.668l-4.8,5.106a1.217,1.217,0,0,1-.886.383Z" transform="translate(37.337 -5883.049)" fill="#00bcc5"/>
    <path id="Path_198" data-name="Path 198" d="M1113.061,8302.68h-.026a1.216,1.216,0,0,1-.9-.422l-2.8-3.275a1.215,1.215,0,1,1,1.844-1.583l1.925,2.242,3.87-4.12a1.217,1.217,0,0,1,1.774,1.667l-4.8,5.108A1.213,1.213,0,0,1,1113.061,8302.68Z" transform="translate(37.337 -5817.083)" fill="#00bcc5"/>
    <path id="Path_199" data-name="Path 199" d="M1194.469,8470.763h-6.084a1.216,1.216,0,0,1,0-2.433h6.084a1.216,1.216,0,0,1,0,2.433Z" transform="translate(-28.628 -5963.306)" fill="#00bcc5"/>
    <path id="Path_200" data-name="Path 200" d="M1199.325,8392.635h-10.95a1.217,1.217,0,0,1,0-2.435h10.95a1.217,1.217,0,0,1,0,2.435Z" transform="translate(-28.619 -5897.342)" fill="#00bcc5"/>
    <path id="Path_201" data-name="Path 201" d="M1205.4,8314.5h-17.033a1.217,1.217,0,1,1,0-2.434H1205.4a1.217,1.217,0,1,1,0,2.434Z" transform="translate(-28.611 -5831.379)" fill="#00bcc5"/>
    <line id="Line_29" data-name="Line 29" y1="2.949" x2="2.149" transform="translate(1196.531 2496.812)" fill="none"/>
    <path id="Path_202" data-name="Path 202" d="M1424.546,8413.152a1.215,1.215,0,0,1-.984-1.931l2.146-2.952a1.217,1.217,0,0,1,1.968,1.433l-2.146,2.949A1.208,1.208,0,0,1,1424.546,8413.152Z" transform="translate(-228.014 -5912.175)" fill="#00bcc5"/>
    <line id="Line_30" data-name="Line 30" x1="2.146" y1="2.954" transform="translate(1174.364 2496.807)" fill="none"/>
    <path id="Path_203" data-name="Path 203" d="M1284.332,8413.139a1.208,1.208,0,0,1-.984-.5l-2.146-2.952a1.217,1.217,0,1,1,1.967-1.434l2.146,2.955a1.216,1.216,0,0,1-.984,1.931Z" transform="translate(-107.821 -5912.162)" fill="#00bcc5"/>
    <line id="Line_31" data-name="Line 31" y1="2.434" transform="translate(1186.521 2494.076)" fill="none"/>
    <path id="Path_204" data-name="Path 204" d="M1360.256,8395.06a1.215,1.215,0,0,1-1.216-1.216v-2.436a1.217,1.217,0,0,1,2.434,0v2.436A1.216,1.216,0,0,1,1360.256,8395.06Z" transform="translate(-173.734 -5897.335)" fill="#00bcc5"/>
    <path id="Path_205" data-name="Path 205" d="M1349.485,8363.818a1.214,1.214,0,0,1-1.216-1.215v-1.218h-2.436v1.218a1.217,1.217,0,0,1-2.434,0v-2.436a1.218,1.218,0,0,1,1.218-1.217h4.866a1.218,1.218,0,0,1,1.218,1.217v2.436a1.216,1.216,0,0,1-1.218,1.215Z" transform="translate(-160.53 -5870.959)" fill="#00bcc5"/>
    <path id="Path_206" data-name="Path 206" d="M1267.9,8442.327a18.249,18.249,0,1,1,18.249-18.25A18.269,18.269,0,0,1,1267.9,8442.327Zm0-34.063a15.815,15.815,0,1,0,15.816,15.815A15.834,15.834,0,0,0,1267.9,8408.264Z" transform="translate(-81.379 -5910.538)" fill="#00bcc5"/>
    <path id="Path_207" data-name="Path 207" d="M1399.325,8450.062a1.244,1.244,0,0,1-1.215-1.217,1.215,1.215,0,0,1,.339-.851,1.271,1.271,0,0,1,1.725-.023,1.222,1.222,0,0,1,.367.874,1.252,1.252,0,0,1-1.218,1.217Z" transform="translate(-206.721 -5945.842)" fill="#00bcc5"/>
    <path id="Path_208" data-name="Path 208" d="M1321.188,8585.389a1.2,1.2,0,0,1-.852-2.068,1.219,1.219,0,0,1,1.7,0,1.217,1.217,0,0,1-.85,2.068Z" transform="translate(-140.749 -6060.097)" fill="#00bcc5"/>
    <path id="Path_209" data-name="Path 209" d="M1427.908,8478.605a1.249,1.249,0,0,1-1.218-1.217,1.218,1.218,0,0,1,2.068-.877,1.272,1.272,0,0,1,.366.877,1.25,1.25,0,0,1-1.216,1.217Z" transform="translate(-230.851 -5969.931)" fill="#00bcc5"/>
    <path id="Path_210" data-name="Path 210" d="M1292.6,8556.778a1.244,1.244,0,0,1-1.215-1.218,1.256,1.256,0,0,1,.34-.85,1.274,1.274,0,0,1,1.725-.026,1.234,1.234,0,0,1,.366.876,1.216,1.216,0,0,1-.339.853A1.24,1.24,0,0,1,1292.6,8556.778Z" transform="translate(-116.619 -6035.939)" fill="#00bcc5"/>
    <path id="Path_211" data-name="Path 211" d="M1438.395,8517.666a1.276,1.276,0,0,1-.852-.338,1.24,1.24,0,0,1-.363-.879,1.218,1.218,0,0,1,.34-.852,1.22,1.22,0,0,1,1.749,1.7,1.23,1.23,0,0,1-.874.365Z" transform="translate(-239.707 -6002.91)" fill="#00bcc5"/>
    <path id="Path_212" data-name="Path 212" d="M1282.118,8517.738a1.2,1.2,0,0,1-.852-2.068,1.218,1.218,0,0,1,1.7,0,1.135,1.135,0,0,1,.366.851,1.206,1.206,0,0,1-.341.851,1.229,1.229,0,0,1-.874.367Z" transform="translate(-107.763 -6002.981)" fill="#00bcc5"/>
    <path id="Path_213" data-name="Path 213" d="M1427.908,8556.727a1.2,1.2,0,0,1-1.218-1.219,1.2,1.2,0,0,1,.343-.85,1.246,1.246,0,0,1,1.725-.025,1.274,1.274,0,0,1,.366.875,1.206,1.206,0,0,1-.341.852,1.233,1.233,0,0,1-.874.367Z" transform="translate(-230.851 -6035.888)" fill="#00bcc5"/>
    <path id="Path_214" data-name="Path 214" d="M1292.6,8478.726a1.152,1.152,0,0,1-.852-.366,1.18,1.18,0,0,1,0-1.7,1.239,1.239,0,0,1,1.7,0,1.173,1.173,0,0,1,0,1.7A1.148,1.148,0,0,1,1292.6,8478.726Z" transform="translate(-116.619 -5970.05)" fill="#00bcc5"/>
    <path id="Path_215" data-name="Path 215" d="M1399.325,8585.322a1.223,1.223,0,0,1-.852-.34,1.237,1.237,0,0,1-.363-.876,1.212,1.212,0,0,1,.339-.852,1.245,1.245,0,0,1,1.725-.024,1.226,1.226,0,0,1,.367.876,1.24,1.24,0,0,1-.344.851,1.223,1.223,0,0,1-.874.366Z" transform="translate(-206.721 -6060.031)" fill="#00bcc5"/>
    <path id="Path_216" data-name="Path 216" d="M1321.188,8450.078a1.2,1.2,0,0,1-.852-2.068,1.219,1.219,0,0,1,1.7,0,1.217,1.217,0,0,1-.85,2.068Z" transform="translate(-140.749 -5945.857)" fill="#00bcc5"/>
    <path id="Path_217" data-name="Path 217" d="M1360.265,8595.868a1.206,1.206,0,0,1-.852-2.068,1.247,1.247,0,0,1,1.725,0,1.2,1.2,0,0,1,.344.853,1.256,1.256,0,0,1-1.218,1.216Z" transform="translate(-173.744 -6068.944)" fill="#00bcc5"/>
    <path id="Path_218" data-name="Path 218" d="M1360.265,8439.608a1.206,1.206,0,0,1-.852-2.068,1.218,1.218,0,0,1,1.7,0,1.217,1.217,0,0,1-.85,2.068Z" transform="translate(-173.744 -5937.018)" fill="#00bcc5"/>
    <line id="Line_32" data-name="Line 32" y1="10.949" transform="translate(1186.521 2501.376)" fill="none"/>
    <path id="Path_219" data-name="Path 219" d="M1360.256,8449.3a1.216,1.216,0,0,1-1.216-1.218V8438.3a1.217,1.217,0,0,1,2.434,0v9.784A1.217,1.217,0,0,1,1360.256,8449.3Z" transform="translate(-173.734 -5936.922)" fill="#00bcc5"/>
    <path id="Path_220" data-name="Path 220" d="M1347.06,8506.889a3.649,3.649,0,1,1,3.65-3.65A3.656,3.656,0,0,1,1347.06,8506.889Zm0-4.866a1.217,1.217,0,1,0,1.218,1.216A1.217,1.217,0,0,0,1347.06,8502.022Z" transform="translate(-160.538 -5989.697)" fill="#00bcc5"/>
  </g>
</svg>
