<svg xmlns="http://www.w3.org/2000/svg" width="132" height="130" viewBox="0 0 132 130">
  <g id="consultation" transform="translate(-347 -2925)">
    <ellipse id="Ellipse_36" data-name="Ellipse 36" cx="66" cy="65" rx="66" ry="65" transform="translate(347 2925)" fill="rgba(0,188,197,0.3)"/>
    <g id="Patient_Consulting" data-name="Patient Consulting" transform="translate(381.285 2959.945)">
      <path id="Path_240" data-name="Path 240" d="M57.754,257.879l-2.56-.889a6.183,6.183,0,0,0,2.355-4.855v-1.877a6.193,6.193,0,1,0-12.386,0v1.877a6.183,6.183,0,0,0,2.356,4.855l-2.561.889a8.434,8.434,0,0,0-4.012,2.951H34.029V258.1a8.451,8.451,0,0,0-5.675-7.978l-2.561-.889a6.183,6.183,0,0,0,2.356-4.855V242.5a6.193,6.193,0,1,0-12.386,0v1.877a6.184,6.184,0,0,0,2.355,4.855l-2.56.889A8.451,8.451,0,0,0,9.883,258.1v2.73H.938a.938.938,0,0,0-.938.938v7.756a.938.938,0,0,0,.938.938H39.971a.851.851,0,0,1,.25,0H62.49a.938.938,0,0,0,.938-.938v-3.668a8.451,8.451,0,0,0-5.675-7.978ZM47.04,250.258a4.316,4.316,0,1,1,8.632,0v1.877a4.316,4.316,0,1,1-8.632,0ZM17.64,242.5a4.316,4.316,0,0,1,8.632,0v1.877a4.316,4.316,0,1,1-8.632,0Zm6.285,8.069.912.316-2.88,5-2.88-5,.912-.316ZM11.759,258.1a6.573,6.573,0,0,1,4.414-6.2l1.1-.381,3.872,6.719a.938.938,0,0,0,1.626,0l3.872-6.719,1.1.381a6.573,6.573,0,0,1,4.413,6.2v2.73H11.759Zm-9.883,4.606H39.894a8.415,8.415,0,0,0-.611,3.15v2.73H1.876Zm59.676,5.88H41.16v-2.73a6.573,6.573,0,0,1,4.413-6.2l3.814-1.324h3.937l3.814,1.324a6.573,6.573,0,0,1,4.414,6.2Zm0,0" transform="translate(0.001 -207.033)" fill="#00bcc5"/>
      <path id="Path_241" data-name="Path 241" d="M57.486,6.756H47.955a.938.938,0,0,0,0,1.877h9.531A4.071,4.071,0,0,1,61.552,12.7V25.709a4.07,4.07,0,0,1-4.066,4.066H44.6a.938.938,0,0,0-.938.938V34.7L39.008,30.05a.938.938,0,0,0-.663-.275H30.713a4.071,4.071,0,0,1-4.066-4.066V12.7a4.071,4.071,0,0,1,4.066-4.066H43.568a.938.938,0,0,0,0-1.877h-4.91V5.942A5.95,5.95,0,0,0,32.715,0H5.942A5.95,5.95,0,0,0,0,5.942V8.017a.938.938,0,1,0,1.877,0V5.942A4.07,4.07,0,0,1,5.942,1.877H32.715a4.07,4.07,0,0,1,4.066,4.066v.813H30.713A5.95,5.95,0,0,0,24.771,12.7V23.019H14.95a.938.938,0,0,0-.938.938v3.99L9.358,23.294a.938.938,0,0,0-.663-.275H5.942a4.07,4.07,0,0,1-4.066-4.066V12.38A.938.938,0,0,0,0,12.38v6.573A5.949,5.949,0,0,0,5.942,24.9H8.306l5.981,5.981a.938.938,0,0,0,1.6-.663V24.9h8.882v.813a5.949,5.949,0,0,0,5.943,5.942h7.243l5.98,5.981a.938.938,0,0,0,1.6-.663V31.652H57.486a5.949,5.949,0,0,0,5.943-5.942V12.7a5.95,5.95,0,0,0-5.943-5.943Zm0,0" transform="translate(0.001 0)" fill="#00bcc5"/>
    </g>
  </g>
</svg>
