<svg xmlns="http://www.w3.org/2000/svg" width="132" height="130" viewBox="0 0 132 130">
  <g id="followup" transform="translate(-1441 -2925)">
    <ellipse id="Ellipse_31" data-name="Ellipse 31" cx="66" cy="65" rx="66" ry="65" transform="translate(1441 2925)" fill="rgba(0,188,197,0.3)"/>
    <g id="Patient_FollowUp" data-name="Patient FollowUp" transform="translate(1473.154 2953.254)">
      <g id="Group_242" data-name="Group 242" transform="translate(0)">
        <g id="Group_241" data-name="Group 241">
          <path id="Path_242" data-name="Path 242" d="M29.553,58.709H7.911a2.489,2.489,0,0,1-2.369-3.251A19.194,19.194,0,0,1,23.777,42.474a18.607,18.607,0,0,1,10.7,3.354,2.488,2.488,0,1,0,2.846-4.081A23.64,23.64,0,0,0,32.358,39.1a12.664,12.664,0,0,0,4.119-8.355A18.728,18.728,0,0,1,60.221,28.8a2.488,2.488,0,1,0,2.846-4.081,23.64,23.64,0,0,0-4.962-2.649,12.687,12.687,0,1,0-17.084-.028q-.521.2-1.034.426a23.618,23.618,0,0,0-4.382,2.515A12.686,12.686,0,1,0,15.252,39.051,23.925,23.925,0,0,0,.806,53.935a7.464,7.464,0,0,0,7.105,9.75H29.553a2.488,2.488,0,0,0,0-4.976ZM49.579,4.975a7.712,7.712,0,1,1-7.712,7.712A7.721,7.721,0,0,1,49.579,4.975ZM23.832,22a7.712,7.712,0,1,1-7.712,7.712A7.721,7.721,0,0,1,23.832,22Z" transform="translate(-0.44)" fill="#00bcc5"/>
          <path id="Path_243" data-name="Path 243" d="M292.984,322.815a2.488,2.488,0,0,0-3.471.575l-12.262,17.128a1.421,1.421,0,0,1-2.045.106L267.268,333a2.488,2.488,0,0,0-3.446,3.589l7.946,7.63a6.415,6.415,0,0,0,4.413,1.763q.211,0,.422-.014a6.414,6.414,0,0,0,4.561-2.375c.029-.036.057-.073.084-.11l12.312-17.2A2.488,2.488,0,0,0,292.984,322.815Z" transform="translate(-230.332 -282.181)" fill="#00bcc5"/>
        </g>
      </g>
    </g>
  </g>
</svg>
