<svg xmlns="http://www.w3.org/2000/svg" width="132" height="130" viewBox="0 0 132 130">
  <g id="interview" transform="translate(-894 -2342)">
    <ellipse id="Ellipse_38" data-name="Ellipse 38" cx="66" cy="65" rx="66" ry="65" transform="translate(894 2342)" fill="rgba(0,188,197,0.3)"/>
    <g id="Patient_Interview" data-name="Patient Interview" transform="translate(927.398 2374.4)">
      <g id="Group_243" data-name="Group 243" transform="translate(0 0)">
        <path id="Path_244" data-name="Path 244" d="M38.105,18.1H57.459l4.034,4.034a1.449,1.449,0,0,0,2.474-1.025V17.893A3.776,3.776,0,0,0,66.5,14.339V3.767A3.761,3.761,0,0,0,62.747.01H38.105a3.761,3.761,0,0,0-3.757,3.757v.772a.955.955,0,1,0,1.91,0V3.767A1.849,1.849,0,0,1,38.105,1.92H62.747a1.849,1.849,0,0,1,1.847,1.847V14.339a1.854,1.854,0,0,1-1.462,1.807,1.364,1.364,0,0,0-1.074,1.332v2.515L58.65,16.586a1.354,1.354,0,0,0-.965-.4H38.105a1.849,1.849,0,0,1-1.847-1.847V9.012a.955.955,0,1,0-1.91,0v5.327A3.761,3.761,0,0,0,38.105,18.1Z" transform="translate(-29.974 -0.01)" fill="#00bcc5"/>
        <path id="Path_245" data-name="Path 245" d="M64.248,121.133a.955.955,0,0,0,.955-.955v-.735a6.692,6.692,0,0,0-4.781-6.386l-5.179-1.52a1.9,1.9,0,0,0-.511-.335l-1.08-.481a2.271,2.271,0,0,0-.9-.2V108.25a7.879,7.879,0,0,0,3.149-5.362,2.042,2.042,0,0,0,1.485-1.962V94.091a3.017,3.017,0,0,0-2.833-3.007,3.017,3.017,0,0,0-3-2.758H44.464a5.7,5.7,0,0,0-5.691,5.691v6.91a2.042,2.042,0,0,0,1.485,1.962,7.881,7.881,0,0,0,3.149,5.361v2.269a2.269,2.269,0,0,0-.886.2l-1.059.476a1.9,1.9,0,0,0-.507.334l-5.21,1.529a6.692,6.692,0,0,0-4.781,6.386v5.187a6.491,6.491,0,0,0-2.281-1.2c-.084-.025.405.074-7.436-1.42v-.021a24.91,24.91,0,0,0,3.66-.965c2.652-.921,4.378-3.648,3.026-8.156a16,16,0,0,1-.674-4.595A10.6,10.6,0,0,0,16.675,97.691h0A10.6,10.6,0,0,0,6.092,108.274a16,16,0,0,1-.674,4.591c-1.337,4.462.335,7.222,3.026,8.156a24.908,24.908,0,0,0,3.657.965C4.293,123.5,4.75,123.4,4.668,123.427A6.533,6.533,0,0,0,0,129.663v9.017a3.6,3.6,0,0,0,3.6,3.6h.007l58-.058a3.6,3.6,0,0,0,3.6-3.6V124.643a.955.955,0,1,0-1.91,0v2.209H52.128l-1.69-7.534.914-1.638a1.98,1.98,0,0,0,1-.52l2.935-2.858a1.9,1.9,0,0,0,.431-.635l4.168,1.224a4.771,4.771,0,0,1,3.408,4.553v.735a.955.955,0,0,0,.955.955ZM40.683,94.017a3.785,3.785,0,0,1,3.781-3.781h7.091a1.1,1.1,0,0,1,1.1,1.1,1.652,1.652,0,0,0,1.65,1.65h.069a1.1,1.1,0,0,1,1.1,1.1V97.63h-.467a.477.477,0,0,1-.477-.477v-.784A2.469,2.469,0,0,0,51.3,94.027a10.312,10.312,0,0,1-6.429,0,2.465,2.465,0,0,0-3.24,2.342v.784a.477.477,0,0,1-.477.477h-.467V94.017Zm1.436,8.269a1.315,1.315,0,0,0-1.308-1.231.128.128,0,0,1-.128-.128V99.54h.467a2.39,2.39,0,0,0,2.387-2.387v-.784a.556.556,0,0,1,.734-.528,12.23,12.23,0,0,0,7.625,0,.556.556,0,0,1,.731.528v.784a2.39,2.39,0,0,0,2.387,2.387h.467v1.386a.128.128,0,0,1-.128.128,1.315,1.315,0,0,0-1.307,1.231,5.975,5.975,0,0,1-11.925,0Zm6.747,15.93H47.281l-.615-1.056,1.488-1.243,1.35,1.155Zm1.3,8.636H45.988l1.508-6.726h1.165Zm-2.019-13.386-2.833-2.117v-2.06a7.872,7.872,0,0,0,5.528,0v2.09ZM43.3,112.46a.361.361,0,0,1,.364.04l2.954,2.207-1.373,1.147a.06.06,0,0,1-.023.012l-.012,0a.058.058,0,0,1-.041-.015l-2.918-2.922ZM9.071,119.216c-2.414-.838-2.554-3.365-1.823-5.8A17.912,17.912,0,0,0,8,108.27a8.673,8.673,0,0,1,17.345,0,17.9,17.9,0,0,0,.754,5.139c.731,2.439.591,4.965-1.823,5.8A23.281,23.281,0,0,1,9.071,119.216Zm10.264,3.046v.338a2.939,2.939,0,0,1-5.324-.021v-.317A25.312,25.312,0,0,0,19.336,122.262Zm12.1,17.8a.246.246,0,0,1-.237.246h-.034L3.6,140.369h0A1.688,1.688,0,0,1,1.91,138.68v-9.017a4.614,4.614,0,0,1,3.255-4.39l7.358-1.423a4.855,4.855,0,0,0,8.3.021l7.365,1.4a4.59,4.59,0,0,1,3.253,4.39Zm1.434-20.623a4.771,4.771,0,0,1,3.409-4.553l4.2-1.233a1.9,1.9,0,0,0,.411.616l2.934,2.938.01.01a1.966,1.966,0,0,0,.952.514l.927,1.593-1.687,7.525H32.874Zm30.419,9.32v9.859a1.691,1.691,0,0,1-1.689,1.689H33.337a2.19,2.19,0,0,0,.014-.245v-10.4a6.489,6.489,0,0,0-.063-.9Zm-12.27-12.976a.058.058,0,0,1-.04.016l-.023,0a.059.059,0,0,1-.016-.009l-1.27-1.086,2.833-2.194a.36.36,0,0,1,.368-.044l1.069.476Z" transform="translate(0 -77.079)" fill="#00bcc5"/>
      </g>
    </g>
  </g>
</svg>
