<svg xmlns="http://www.w3.org/2000/svg" width="132" height="130" viewBox="0 0 132 130">
  <g id="measurements" transform="translate(-1441 -2342)">
    <ellipse id="Ellipse_37" data-name="Ellipse 37" cx="66" cy="65" rx="66" ry="65" transform="translate(1441 2342)" fill="rgba(0,188,197,0.3)"/>
    <g id="Patient_Vital" data-name="Patient Vital" transform="translate(1475.65 2384.212)">
      <path id="Path_260" data-name="Path 260" d="M61.779,109.358a.92.92,0,0,0-.92.92,3.376,3.376,0,0,1-3.372,3.372H5.212a3.376,3.376,0,0,1-3.372-3.372V75.127a3.376,3.376,0,0,1,3.372-3.372H34.463a.92.92,0,1,0,0-1.84H5.212A5.218,5.218,0,0,0,0,75.127v35.151a5.218,5.218,0,0,0,5.212,5.212H57.486a5.218,5.218,0,0,0,5.212-5.212A.92.92,0,0,0,61.779,109.358Z" transform="translate(0 -69.915)" fill="#00bcc5"/>
      <path id="Path_261" data-name="Path 261" d="M329.236,69.915H310.591a.92.92,0,1,0,0,1.84h18.645a3.376,3.376,0,0,1,3.372,3.372v30.74a.92.92,0,0,0,1.84,0V75.127A5.218,5.218,0,0,0,329.236,69.915Z" transform="translate(-271.749 -69.915)" fill="#00bcc5"/>
      <path id="Path_262" data-name="Path 262" d="M106.317,149.91V131.365a2.394,2.394,0,0,0-2.391-2.391H78.3a.92.92,0,0,0,0,1.84h25.621a.553.553,0,0,1,.552.552v7.875h-3.753l-1.456-1.455a1.288,1.288,0,0,0-1.821,0l-3.857,3.857-1.479-1.479a1.288,1.288,0,0,0-1.821,0L87.8,142.657l-6.625-6.625a1.288,1.288,0,0,0-1.821,0l-3.209,3.208H70.2v-7.875a.553.553,0,0,1,.552-.552H73.73a.92.92,0,0,0,0-1.84H70.756a2.394,2.394,0,0,0-2.391,2.391V149.91a2.394,2.394,0,0,0,2.391,2.391h33.169A2.394,2.394,0,0,0,106.317,149.91Zm-36.112,0v-8.83H76.37a1.279,1.279,0,0,0,.911-.377l2.98-2.98,6.625,6.625a1.289,1.289,0,0,0,1.821,0l2.494-2.494,1.479,1.479a1.289,1.289,0,0,0,1.821,0l3.857-3.857,1.227,1.227a1.279,1.279,0,0,0,.911.377h3.982v8.83a.553.553,0,0,1-.552.552H70.757a.553.553,0,0,1-.552-.552Z" transform="translate(-59.993 -121.741)" fill="#00bcc5"/>
      <path id="Path_263" data-name="Path 263" d="M234.841,342.933a3.748,3.748,0,1,0,3.748-3.748A3.752,3.752,0,0,0,234.841,342.933Zm5.657,0a1.908,1.908,0,1,1-1.908-1.909A1.911,1.911,0,0,1,240.5,342.933Z" transform="translate(-206.083 -306.211)" fill="#00bcc5"/>
      <path id="Path_264" data-name="Path 264" d="M73.44,341.622a3.748,3.748,0,1,0,0,2.623,3.748,3.748,0,1,0,0-2.623Zm-3.511,3.22a1.909,1.909,0,1,1,1.909-1.909A1.911,1.911,0,0,1,69.929,344.842Zm8.93-1.909a1.909,1.909,0,1,1-1.909-1.909A1.911,1.911,0,0,1,78.859,342.933Z" transform="translate(-58.077 -306.211)" fill="#00bcc5"/>
    </g>
  </g>
</svg>
