<svg xmlns="http://www.w3.org/2000/svg" width="132" height="130" viewBox="0 0 132 130">
  <g id="registration" transform="translate(-347 -2342)">
    <ellipse id="Ellipse_39" data-name="Ellipse 39" cx="66" cy="65" rx="66" ry="65" transform="translate(347 2342)" fill="rgba(0,188,197,0.3)"/>
    <g id="Patient_Reg" data-name="Patient Reg" transform="translate(378.633 2379.585)">
      <path id="Path_246" data-name="Path 246" d="M72.512,168.4h7.752a1.181,1.181,0,0,0,1.18-1.18V164.6a.81.81,0,0,0-1.62,0v2.181H72.952V159.92h3.436a.81.81,0,1,0,0-1.62H72.512a1.181,1.181,0,0,0-1.18,1.18v7.742A1.181,1.181,0,0,0,72.512,168.4Z" transform="translate(-63.323 -138.281)" fill="#00bcc5"/>
      <path id="Path_247" data-name="Path 247" d="M102.735,153.732a.81.81,0,0,0-1.141.1l-3.864,4.643-1.24-1a.81.81,0,1,0-1.018,1.26l1.49,1.206a1.284,1.284,0,0,0,1.716-.076l.033-.031,4.129-4.961a.81.81,0,0,0-.1-1.141Z" transform="translate(-83.944 -134.168)" fill="#00bcc5"/>
      <path id="Path_248" data-name="Path 248" d="M234.39,162.482h-31.6a.81.81,0,1,0,0,1.62h31.6a.81.81,0,0,0,0-1.62Z" transform="translate(-176.33 -141.898)" fill="#00bcc5"/>
      <path id="Path_249" data-name="Path 249" d="M234.39,212.193h-31.6a.81.81,0,0,0,0,1.62h31.6a.81.81,0,0,0,0-1.62Z" transform="translate(-176.33 -184.899)" fill="#00bcc5"/>
      <path id="Path_250" data-name="Path 250" d="M80.634,290.959a.81.81,0,0,0-.81.81v2.181H72.952v-6.862h3.436a.81.81,0,1,0,0-1.62H72.512a1.181,1.181,0,0,0-1.18,1.18v7.742a1.181,1.181,0,0,0,1.18,1.18h7.752a1.181,1.181,0,0,0,1.18-1.18v-2.621A.81.81,0,0,0,80.634,290.959Z" transform="translate(-63.323 -248.282)" fill="#00bcc5"/>
      <path id="Path_251" data-name="Path 251" d="M102.736,280.9a.81.81,0,0,0-1.141.1l-3.863,4.643-1.24-1a.81.81,0,1,0-1.019,1.259l1.49,1.206a1.284,1.284,0,0,0,1.716-.076l.033-.031,4.129-4.961A.81.81,0,0,0,102.736,280.9Z" transform="translate(-83.945 -244.169)" fill="#00bcc5"/>
      <path id="Path_252" data-name="Path 252" d="M394.742,289.65h-6.581a.81.81,0,0,0,0,1.62h6.58a.81.81,0,1,0,0-1.62Z" transform="translate(-336.683 -251.9)" fill="#00bcc5"/>
      <path id="Path_253" data-name="Path 253" d="M213.049,289.65H202.785a.81.81,0,0,0,0,1.62h10.265a.81.81,0,0,0,0-1.62Z" transform="translate(-176.33 -251.9)" fill="#00bcc5"/>
      <path id="Path_254" data-name="Path 254" d="M205.551,339.362h-2.766a.81.81,0,1,0,0,1.62h2.766a.81.81,0,1,0,0-1.62Z" transform="translate(-176.33 -294.901)" fill="#00bcc5"/>
      <path id="Path_255" data-name="Path 255" d="M74.145,10H15.731A3.735,3.735,0,0,0,12,13.73V62.138a3.733,3.733,0,0,0,3.725,3.73l30.891.219,1.565,6.149c0,.011.006.022.009.033a5.78,5.78,0,0,0,5.571,4.147H65.053A5.824,5.824,0,0,0,70.869,70.6V66.048l3.3-.18a3.735,3.735,0,0,0,3.707-3.73V13.73A3.735,3.735,0,0,0,74.145,10ZM15.731,11.62H74.145a2.113,2.113,0,0,1,2.111,2.11v8.2H13.62v-8.2a2.113,2.113,0,0,1,2.111-2.11ZM69.249,70.6a4.2,4.2,0,0,1-4.2,4.2H53.76a4.17,4.17,0,0,1-4.014-2.977l-1.714-6.738a28.711,28.711,0,0,0-1.612-4.63l-.133-.315a5.33,5.33,0,0,1,4.387,2.3l1.393,2.018v3.008a.81.81,0,1,0,1.62,0V45.452a1.524,1.524,0,0,1,3.047,0V59.83a.809.809,0,0,0,.035.234v3.3a.81.81,0,0,0,1.62,0V58.841a1.208,1.208,0,0,1,2.416,0v.918a2.929,2.929,0,0,0-.032.427v3.179a.81.81,0,0,0,.81.81h.032a.81.81,0,0,0,.81-.81V59.9a1.3,1.3,0,0,1,2.569.282v4.019a.81.81,0,0,0,1.62,0v-2.75a1.318,1.318,0,1,1,2.635,0Zm4.9-6.348H74.1l-3.232.175v-2.97a2.935,2.935,0,0,0-4.517-2.476,2.917,2.917,0,0,0-4.175-1.29A2.816,2.816,0,0,0,58.355,56.3V45.452a3.143,3.143,0,1,0-6.287,0V61.606l-.06-.086a6.949,6.949,0,0,0-5.721-3,1.626,1.626,0,0,0-1.484,2.29l.136.305a27.1,27.1,0,0,1,1.239,3.352l-30.45-.216a2.113,2.113,0,0,1-2.11-2.109V23.55H76.255V62.138a2.113,2.113,0,0,1-2.111,2.11Z" transform="translate(-12 -10)" fill="#00bcc5"/>
      <path id="Path_256" data-name="Path 256" d="M42.3,42.641a3.1,3.1,0,1,0-3.1-3.1A3.1,3.1,0,0,0,42.3,42.641Zm0-4.589a1.485,1.485,0,1,1-1.485,1.485A1.485,1.485,0,0,1,42.3,38.052Z" transform="translate(-35.528 -32.863)" fill="#00bcc5"/>
      <path id="Path_257" data-name="Path 257" d="M102.938,42.641a3.1,3.1,0,1,0-3.1-3.1A3.1,3.1,0,0,0,102.938,42.641Zm0-4.589a1.485,1.485,0,1,1-1.485,1.485A1.485,1.485,0,0,1,102.938,38.052Z" transform="translate(-87.976 -32.863)" fill="#00bcc5"/>
      <path id="Path_258" data-name="Path 258" d="M163.572,42.641a3.1,3.1,0,1,0-3.1-3.1A3.1,3.1,0,0,0,163.572,42.641Zm0-4.589a1.485,1.485,0,1,1-1.485,1.485A1.485,1.485,0,0,1,163.572,38.052Z" transform="translate(-140.425 -32.863)" fill="#00bcc5"/>
      <path id="Path_259" data-name="Path 259" d="M267.81,53.92h26.314a.81.81,0,0,0,0-1.62H267.81a.81.81,0,0,0,0,1.62Z" transform="translate(-232.578 -46.59)" fill="#00bcc5"/>
    </g>
  </g>
</svg>
