<svg xmlns="http://www.w3.org/2000/svg" width="132" height="130" viewBox="0 0 132 130">
  <g id="treatmentplan" transform="translate(-894 -2925)">
    <ellipse id="Ellipse_35" data-name="Ellipse 35" cx="66" cy="65" rx="66" ry="65" transform="translate(894 2925)" fill="rgba(0,188,197,0.3)"/>
    <g id="Group_244" data-name="Group 244" transform="translate(710.58 1599.131)">
      <g id="Group_199" data-name="Group 199" transform="translate(217.416 1362.418)">
        <g id="healthcare" transform="translate(0)">
          <path id="Path_142" data-name="Path 142" d="M1.237,307.948H11.87a1.237,1.237,0,0,0,1.236-1.237V305.5a26.4,26.4,0,0,1,9.433,2.357,28.115,28.115,0,0,0,11.588,2.561c2.277,0,5.657-.766,10.046-2.276a1.236,1.236,0,1,0-.8-2.338c-4.129,1.421-7.238,2.141-9.241,2.141a25.7,25.7,0,0,1-10.669-2.385,28.717,28.717,0,0,0-10.351-2.535V290.465a15.23,15.23,0,0,0,2.42-.947c2.437-1.112,5.2-2.373,8.986-.244l5.969,3.358a3.716,3.716,0,0,0,1.82.477H40.31a2.473,2.473,0,0,1,.892,4.779,2.435,2.435,0,0,1-.892.167H27.74a1.236,1.236,0,0,0,0,2.473H40.31a4.894,4.894,0,0,0,1.742-.318l.03-.009,15.386-5.688a2.474,2.474,0,0,1,1.955,4.542c-.212.1-.424.2-.833.4l-.358-.715a1.237,1.237,0,0,0-2.212,1.106l.328.657c-.809.371-1.729.787-2.735,1.229a1.237,1.237,0,0,0,1,2.264c2.432-1.071,4.042-1.83,5.869-2.7a4.947,4.947,0,0,0-3.9-9.087l-11.4,4.214a4.867,4.867,0,0,0,.073-.835,4.952,4.952,0,0,0-4.946-4.946H32.3a1.238,1.238,0,0,1-.607-.159l-5.97-3.358c-4.882-2.746-8.549-1.073-11.226.149a7.684,7.684,0,0,1-2.63.9H1.237A1.237,1.237,0,0,0,0,289.4v17.311a1.237,1.237,0,0,0,1.236,1.236Zm1.236-17.311h8.161v14.838H2.473Z" transform="translate(0 -253.519)" fill="#00bcc5"/>
          <path id="Path_143" data-name="Path 143" d="M203.9,57.874a1.237,1.237,0,0,0,1.359,0C223.4,45.94,224,37.11,222.74,32.909a10.094,10.094,0,0,0-9.5-7,11.434,11.434,0,0,0-8.653,4.141,11.432,11.432,0,0,0-8.652-4.141,10.1,10.1,0,0,0-9.5,7.016C185.175,37.119,185.773,45.944,203.9,57.874ZM188.8,33.631a7.675,7.675,0,0,1,7.13-5.252,9.338,9.338,0,0,1,7.586,4.36,1.237,1.237,0,0,0,2.133,0c.025-.044,2.606-4.357,7.586-4.357a7.673,7.673,0,0,1,7.135,5.24c.843,2.815.956,10.517-15.788,21.738C187.847,44.14,187.96,36.443,188.8,33.631Z" transform="translate(-163.023 -25.905)" fill="#00bcc5"/>
          <path id="Path_144" data-name="Path 144" d="M287.236,113.514h3.709v3.709a1.237,1.237,0,0,0,2.473,0v-3.709h3.709a1.236,1.236,0,1,0,0-2.473h-3.709v-3.709a1.237,1.237,0,0,0-2.473,0v3.709h-3.709a1.236,1.236,0,0,0,0,2.473Z" transform="translate(-250.636 -96.18)" fill="#00bcc5"/>
          <ellipse id="Ellipse_32" data-name="Ellipse 32" cx="1.236" cy="1.236" rx="1.236" ry="1.236" transform="translate(47.729 50.225)" fill="#00bcc5"/>
        </g>
      </g>
    </g>
  </g>
</svg>
