<svg xmlns="http://www.w3.org/2000/svg" width="59.12" height="74.924" viewBox="0 0 59.12 74.924">
  <g id="benefits" transform="translate(-54)">
    <g id="XMLID_1278_" transform="translate(54 0)">
      <path id="XMLID_1279_" d="M227.685,49.382A1.793,1.793,0,0,1,229.612,51a1.463,1.463,0,1,0,2.927,0,4.593,4.593,0,0,0-3.39-4.329v-.2a1.463,1.463,0,1,0-2.927,0v.2A4.593,4.593,0,0,0,222.831,51a4.71,4.71,0,0,0,4.854,4.54,1.639,1.639,0,1,1-1.927,1.614,1.463,1.463,0,1,0-2.927,0,4.593,4.593,0,0,0,3.39,4.329v.2a1.463,1.463,0,0,0,2.927,0v-.2a4.593,4.593,0,0,0,3.39-4.329,4.71,4.71,0,0,0-4.854-4.54,1.639,1.639,0,1,1,0-3.227Z" transform="translate(-198.125 -38.415)" fill="#00bcc5"/>
      <path id="XMLID_1303_" d="M111.657,40.13h-6.688A15.73,15.73,0,0,0,89.257,55.842v6.082l-4.233,4.233V31.247a15.669,15.669,0,0,0,13.4-20.52,1.463,1.463,0,0,0-2.778.921,12.716,12.716,0,1,1-8.3-8.149A1.463,1.463,0,1,0,88.216.7,15.66,15.66,0,1,0,82.1,31.247V53.539l-4.233-4.233V43.224A15.73,15.73,0,0,0,62.151,27.512H55.463A1.464,1.464,0,0,0,54,28.975v6.688A15.73,15.73,0,0,0,69.712,51.375h6.082l6.3,6.3V72H67.439a1.463,1.463,0,0,0,0,2.927H99.681a1.463,1.463,0,1,0,0-2.927H85.023V70.3l6.3-6.3h6.082A15.73,15.73,0,0,0,113.12,48.282V41.593A1.464,1.464,0,0,0,111.657,40.13ZM69.712,48.448A12.8,12.8,0,0,1,56.927,35.663V30.439h5.225A12.8,12.8,0,0,1,74.937,43.224v3.155l-6.462-6.462a1.463,1.463,0,1,0-2.07,2.07l6.463,6.462Zm40.481-.167A12.8,12.8,0,0,1,97.408,61.067H94.253l6.462-6.462a1.463,1.463,0,0,0-2.07-2.07L92.184,59V55.842a12.8,12.8,0,0,1,12.785-12.785h5.225Z" transform="translate(-54 0)" fill="#00bcc5"/>
      <path id="XMLID_1306_" d="M315.843,31.127a1.464,1.464,0,1,0-1.035-.429A1.474,1.474,0,0,0,315.843,31.127Z" transform="translate(-276.277 -24.073)" fill="#00bcc5"/>
    </g>
  </g>
</svg>
