<svg xmlns="http://www.w3.org/2000/svg" width="75.406" height="66.74" viewBox="0 0 75.406 66.74">
  <path id="bottomline" d="M75.3,16.706a20.53,20.53,0,0,0-29.035,0l-2.654,2.653-2.653-2.654A20.532,20.532,0,0,0,11.927,45.742l31.69,31.69L75.3,45.742a20.532,20.532,0,0,0,0-29.036ZM72.83,43.266,43.616,72.478,14.4,43.266A17.015,17.015,0,0,1,10.6,37.481h3.2a5.67,5.67,0,0,0,4.373-2.363l.649-.824,3.531,11.8a2.355,2.355,0,0,0,4.609.288l7.646-17.314L43.229,57.8a2.48,2.48,0,0,0,2.186,2.031c.04,0,.084,0,.132,0a2.51,2.51,0,0,0,2.3-1.732L56.8,38.2a1.55,1.55,0,0,1,1.12-.724H68.776a1.751,1.751,0,1,0,0-3.5H57.922a5,5,0,0,0-4.314,2.789l-7.82,17.378-8.635-28.78a2.356,2.356,0,0,0-4.61-.288L24.9,42.384,21.691,31.66A2.613,2.613,0,0,0,19.557,29.6a2.587,2.587,0,0,0-2.545,1.328l-1.7,2.158-.05.08a2.195,2.195,0,0,1-1.462.811H9.636a17.356,17.356,0,0,1-.221-2.753,17.027,17.027,0,0,1,29.07-12.042l5.13,5.13,5.13-5.13A17.03,17.03,0,0,1,72.83,43.266Z" transform="translate(-5.913 -10.692)" fill="#00bcc5"/>
</svg>
