<svg xmlns="http://www.w3.org/2000/svg" width="61.444" height="77.129" viewBox="0 0 61.444 77.129">
  <g id="high-quality" transform="translate(-11.859 -2.4)">
    <g id="Group_247" data-name="Group 247" transform="translate(11.859 51.048)">
      <path id="Path_270" data-name="Path 270" d="M21,89.666a.746.746,0,0,1-.414-.083,1.562,1.562,0,0,1-1.076-.828l-7.448-14.4a1.6,1.6,0,0,1,.579-2.152l16.137-10.1a6.04,6.04,0,0,1,3.559-.91l16.386.414a5.105,5.105,0,0,1,.414,10.179l-5.876.662a1.125,1.125,0,0,0-.828.579,1.024,1.024,0,0,0,0,.993h0a1.148,1.148,0,0,0,.993.579l9.517.414c1.738-1.241,8.276-5.71,12.165-8.358a5.268,5.268,0,0,1,7.2,1.324l.083.083A5.1,5.1,0,0,1,71.229,75.1l-14.9,10.676a8.617,8.617,0,0,1-6.62,1.572l-18.62-2.814a4.779,4.779,0,0,0-3.641.91l-5.462,3.972A2.2,2.2,0,0,1,21,89.666ZM15.782,74.19l5.876,11.338,3.89-2.814a8.243,8.243,0,0,1,6.041-1.49l18.62,2.814a5.883,5.883,0,0,0,4.221-.993L69.243,72.452a1.746,1.746,0,0,0,.414-2.483l-.083-.083a1.861,1.861,0,0,0-2.565-.5c-4.469,3.227-12.662,8.772-12.662,8.772a2.353,2.353,0,0,1-.993.331l-10.1-.414a4.616,4.616,0,0,1-3.807-2.4h0a4.385,4.385,0,0,1,.083-4.055,4.546,4.546,0,0,1,3.393-2.317l5.876-.662a1.762,1.762,0,0,0,1.572-1.9A1.94,1.94,0,0,0,48.637,65L32.168,64.59A2.75,2.75,0,0,0,30.513,65Z" transform="translate(-11.859 -61.185)" fill="#00bcc5"/>
    </g>
    <g id="Group_249" data-name="Group 249" transform="translate(34.317 16.882)">
      <g id="Group_248" data-name="Group 248">
        <path id="Path_271" data-name="Path 271" d="M56.3,51.182a4.154,4.154,0,0,1-.993-.166C42.227,45.8,37.841,36.037,39.248,28.672c.993-5.3,4.883-8.772,9.765-8.772A13.59,13.59,0,0,1,56.3,22.3a13.335,13.335,0,0,1,7.2-2.4c4.883,0,8.772,3.393,9.765,8.689h0c1.407,7.283-2.979,17.048-15.972,22.344A1.387,1.387,0,0,1,56.3,51.182ZM49.1,23.21c-3.31,0-5.793,2.317-6.538,6.124C41.4,35.375,45.206,43.4,56.378,47.872c11.089-4.634,14.9-12.662,13.738-18.62-.745-3.724-3.227-6.041-6.538-6.041a10.9,10.9,0,0,0-6.207,2.4,1.744,1.744,0,0,1-1.986,0A11.334,11.334,0,0,0,49.1,23.21Z" transform="translate(-38.996 -19.9)" fill="#00bcc5"/>
      </g>
    </g>
    <g id="Group_250" data-name="Group 250" transform="translate(49.878 2.4)">
      <path id="Path_272" data-name="Path 272" d="M59.455,11.255A1.66,1.66,0,0,1,57.8,9.6V4.055a1.655,1.655,0,1,1,3.31,0V9.6A1.66,1.66,0,0,1,59.455,11.255Z" transform="translate(-57.8 -2.4)" fill="#00bcc5"/>
    </g>
    <g id="Group_251" data-name="Group 251" transform="translate(64.017 5.201)">
      <path id="Path_273" data-name="Path 273" d="M76.552,14.652a2.416,2.416,0,0,1-.745-.166,1.659,1.659,0,0,1-.745-2.234l2.814-5.545A1.665,1.665,0,0,1,80.856,8.2l-2.814,5.545A1.743,1.743,0,0,1,76.552,14.652Z" transform="translate(-74.885 -5.785)" fill="#00bcc5"/>
    </g>
    <g id="Group_252" data-name="Group 252" transform="translate(32.9 5.201)">
      <path id="Path_274" data-name="Path 274" d="M41.766,14.652a1.743,1.743,0,0,1-1.49-.91L37.463,8.2a1.665,1.665,0,0,1,2.979-1.49l2.814,5.545a1.659,1.659,0,0,1-.745,2.234A2.416,2.416,0,0,1,41.766,14.652Z" transform="translate(-37.285 -5.785)" fill="#00bcc5"/>
    </g>
  </g>
</svg>
