<svg xmlns="http://www.w3.org/2000/svg" width="20.563" height="20.563" viewBox="0 0 20.563 20.563">
  <path id="check-mark-green" d="M14.827,7.02a.8.8,0,0,1,0,1.136L9.438,13.545a.8.8,0,0,1-1.136,0L5.737,10.979A.8.8,0,1,1,6.872,9.843l2,2L13.691,7.02a.8.8,0,0,1,1.136,0Zm5.737,3.262a10.375,10.375,0,0,1-6.033,9.367,9.948,9.948,0,0,1-4.248.914A10.282,10.282,0,1,1,20.563,10.282Zm-1.607,0a8.675,8.675,0,1,0-8.675,8.675,8.767,8.767,0,0,0,7.964-5.227A8.338,8.338,0,0,0,18.957,10.282Zm0,0" transform="translate(0 0)" fill="#00bcc5"/>
</svg>