<svg xmlns="http://www.w3.org/2000/svg" width="22.078" height="22.073" viewBox="0 0 22.078 22.073">
  <path id="Icon_awesome-instagram" data-name="Icon awesome-instagram" d="M11.036,7.615A5.659,5.659,0,1,0,16.7,13.274,5.65,5.65,0,0,0,11.036,7.615Zm0,9.338a3.679,3.679,0,1,1,3.679-3.679,3.686,3.686,0,0,1-3.679,3.679Zm7.211-9.57a1.32,1.32,0,1,1-1.32-1.32A1.317,1.317,0,0,1,18.247,7.383Zm3.748,1.34A6.532,6.532,0,0,0,20.212,4.1a6.575,6.575,0,0,0-4.625-1.783c-1.822-.1-7.285-.1-9.107,0A6.566,6.566,0,0,0,1.855,4.093,6.554,6.554,0,0,0,.072,8.718c-.1,1.822-.1,7.285,0,9.107A6.532,6.532,0,0,0,1.855,22.45,6.584,6.584,0,0,0,6.48,24.233c1.822.1,7.285.1,9.107,0a6.532,6.532,0,0,0,4.625-1.783,6.575,6.575,0,0,0,1.783-4.625c.1-1.822.1-7.28,0-9.1ZM19.641,19.78a3.725,3.725,0,0,1-2.1,2.1c-1.453.576-4.9.443-6.506.443s-5.058.128-6.506-.443a3.725,3.725,0,0,1-2.1-2.1c-.576-1.453-.443-4.9-.443-6.506s-.128-5.058.443-6.506a3.725,3.725,0,0,1,2.1-2.1c1.453-.576,4.9-.443,6.506-.443s5.058-.128,6.506.443a3.725,3.725,0,0,1,2.1,2.1c.576,1.453.443,4.9.443,6.506S20.217,18.332,19.641,19.78Z" transform="translate(0.005 -2.237)" fill="#fff"/>
</svg>
