<svg xmlns="http://www.w3.org/2000/svg" width="26.899" height="18.913" viewBox="0 0 26.899 18.913">
  <path id="Icon_awesome-youtube" data-name="Icon awesome-youtube" d="M27.387,7.459a3.38,3.38,0,0,0-2.378-2.394C22.911,4.5,14.5,4.5,14.5,4.5s-8.411,0-10.509.566A3.38,3.38,0,0,0,1.612,7.459a35.456,35.456,0,0,0-.562,6.516,35.456,35.456,0,0,0,.562,6.516A3.33,3.33,0,0,0,3.99,22.847c2.1.566,10.509.566,10.509.566s8.411,0,10.509-.566a3.33,3.33,0,0,0,2.378-2.355,35.456,35.456,0,0,0,.562-6.516,35.456,35.456,0,0,0-.562-6.516ZM11.748,17.975v-8l7.03,4-7.03,4Z" transform="translate(-1.05 -4.5)" fill="#fff"/>
</svg>
