<svg xmlns="http://www.w3.org/2000/svg" width="22.065" height="22.065" viewBox="0 0 22.065 22.065">
  <path id="Icon_awesome-linkedin" data-name="Icon awesome-linkedin" d="M20.489,2.25H1.571A1.583,1.583,0,0,0,0,3.841V22.724a1.583,1.583,0,0,0,1.571,1.591H20.489a1.587,1.587,0,0,0,1.576-1.591V3.841A1.587,1.587,0,0,0,20.489,2.25ZM6.669,21.163H3.4V10.633H6.674v10.53ZM5.034,9.195a1.9,1.9,0,1,1,1.9-1.9,1.9,1.9,0,0,1-1.9,1.9ZM18.928,21.163h-3.27V16.041c0-1.221-.025-2.793-1.7-2.793-1.7,0-1.965,1.33-1.965,2.7v5.211H8.723V10.633H11.86v1.438H11.9a3.445,3.445,0,0,1,3.1-1.7c3.31,0,3.925,2.182,3.925,5.019Z" transform="translate(0 -2.25)" fill="#fff"/>
</svg>
