<svg xmlns="http://www.w3.org/2000/svg" width="25.217" height="20.481" viewBox="0 0 25.217 20.481">
  <path id="Icon_awesome-twitter" data-name="Icon awesome-twitter" d="M22.625,8.485c.016.224.016.448.016.672a14.6,14.6,0,0,1-14.7,14.7A14.605,14.605,0,0,1,0,21.542a10.692,10.692,0,0,0,1.248.064A10.351,10.351,0,0,0,7.664,19.4a5.177,5.177,0,0,1-4.832-3.584,6.518,6.518,0,0,0,.976.08,5.466,5.466,0,0,0,1.36-.176,5.169,5.169,0,0,1-4.144-5.072v-.064a5.205,5.205,0,0,0,2.336.656,5.176,5.176,0,0,1-1.6-6.912A14.691,14.691,0,0,0,12.417,9.733a5.834,5.834,0,0,1-.128-1.184,5.173,5.173,0,0,1,8.945-3.536,10.175,10.175,0,0,0,3.28-1.248,5.154,5.154,0,0,1-2.272,2.848,10.361,10.361,0,0,0,2.976-.8,11.11,11.11,0,0,1-2.592,2.672Z" transform="translate(0 -3.381)" fill="#fff"/>
</svg>
