<svg xmlns="http://www.w3.org/2000/svg" width="215.583" height="66.306" viewBox="0 0 215.583 66.306">
  <g id="logo" transform="translate(-0.005 0)">
    <path id="Path_1" data-name="Path 1" d="M142.845,33.558a16.747,16.747,0,0,0,5.817-12.693,4.177,4.177,0,0,0-8.354,0,8.437,8.437,0,0,1-8.44,8.44h0V4.177a4.177,4.177,0,1,0-8.354,0V46.251a4.177,4.177,0,1,0,8.354,0v-8.44a8.437,8.437,0,0,1,8.44,8.44,4.177,4.177,0,0,0,8.354,0,16.747,16.747,0,0,0-5.817-12.693ZM102.554,50.438a4.177,4.177,0,0,0,0-8.354h0a8.44,8.44,0,1,1,8.44-8.44l-.01,12.569a4.177,4.177,0,1,0,8.354,0l.01-12.569a16.784,16.784,0,1,0-16.784,16.793Zm65.171-7.925a8.44,8.44,0,1,0-8.44-8.44,8.437,8.437,0,0,0,8.44,8.44Zm0-25.224a16.793,16.793,0,1,1-16.784,16.793A16.786,16.786,0,0,1,167.726,17.289Zm24.718,32.757a4.172,4.172,0,0,1,0-8.344h16.689a2.088,2.088,0,1,0,0-4.177H196.621a10.433,10.433,0,1,1,0-20.865h16.689a4.167,4.167,0,0,1,0,8.335H196.621a2.088,2.088,0,1,0,0,4.177l12.512.057a10.433,10.433,0,1,1,0,20.865l-16.689-.057Z" transform="translate(-3.977)" fill="#fff"/>
    <path id="Path_2" data-name="Path 2" d="M49.961,36.146a3.069,3.069,0,0,1-3.071,3.071H38.527V47.58a3.069,3.069,0,0,1-3.071,3.071H30.183a3.069,3.069,0,0,1-3.071-3.071V39.217H18.749a3.069,3.069,0,0,1-3.071-3.071V30.872A3.069,3.069,0,0,1,18.749,27.8h8.363V19.438a3.069,3.069,0,0,1,3.071-3.071h5.274a3.069,3.069,0,0,1,3.071,3.071V27.8H46.89a3.069,3.069,0,0,1,3.071,3.071ZM30.507.766a32.827,32.827,0,0,0,2.327,65.572l25.224-.524a7.749,7.749,0,0,0,7.591-7.743l.01-24.556A32.829,32.829,0,0,0,30.507.766Z" transform="translate(0 -0.032)" fill="#fff"/>
    <path id="Path_3" data-name="Path 3" d="M208.97,64.634a1.357,1.357,0,0,1,1.316-1.3,1.314,1.314,0,0,1,1.287,1.3Zm1.488,3.662a3.2,3.2,0,0,0,2.117-.734.689.689,0,0,0,.229-.515.662.662,0,0,0-.677-.677.669.669,0,0,0-.42.134,2.03,2.03,0,0,1-1.23.41,1.413,1.413,0,0,1-1.488-1.192h3.424a.792.792,0,0,0,.811-.83,2.885,2.885,0,0,0-2.937-2.937,3.034,3.034,0,0,0-3.013,3.176v.019A3.045,3.045,0,0,0,210.458,68.3Zm-13.694-.935a.868.868,0,1,0,1.736,0v-2.6c0-.82.4-1.24,1.049-1.24s1.011.42,1.011,1.24v2.6a.868.868,0,0,0,1.736,0v-2.6c0-.82.4-1.24,1.049-1.24s1.011.42,1.011,1.24v2.6a.868.868,0,1,0,1.736,0V64.186c0-1.469-.772-2.241-2.06-2.241a2.526,2.526,0,0,0-2,.963,1.828,1.828,0,0,0-1.717-.963,2.169,2.169,0,0,0-1.793.973v-.067a.868.868,0,1,0-1.736,0v4.5Zm-3.357,0a.868.868,0,0,0,1.736,0v-4.5a.868.868,0,0,0-1.736,0Zm-.1-6.733a.976.976,0,0,0,1.926,0V60.61a.978.978,0,0,0-1.926,0Zm-4.415,5.8c0,1.411.715,1.831,1.774,1.831a2.583,2.583,0,0,0,.992-.172.707.707,0,0,0,.439-.648.72.72,0,0,0-.715-.715c-.038,0-.153.01-.21.01-.381,0-.553-.191-.553-.591v-2.6h.763a.739.739,0,0,0,0-1.478h-.763V61.3a.868.868,0,0,0-1.736,0v.763h-.057a.729.729,0,0,0-.734.734.743.743,0,0,0,.734.744h.057v2.89Zm-7.047.935a.868.868,0,0,0,1.736,0v-6.7a.868.868,0,0,0-1.736,0Zm-3.2-1.354c0,.62-.544,1.068-1.354,1.068-.553,0-.944-.277-.944-.744v-.019c0-.544.458-.839,1.192-.839a2.748,2.748,0,0,1,1.106.229v.305Zm-3.967.4a1.882,1.882,0,0,0,2.088,1.86,2.338,2.338,0,0,0,1.84-.772v.01a.776.776,0,0,0,.83.715.826.826,0,0,0,.839-.83V64.615a2.689,2.689,0,0,0-.658-1.945,2.826,2.826,0,0,0-2.06-.687,5.39,5.39,0,0,0-1.945.315.712.712,0,0,0-.467.668.7.7,0,0,0,.715.706.662.662,0,0,0,.248-.048,3.892,3.892,0,0,1,1.192-.172c.868,0,1.306.4,1.306,1.116v.1a4.215,4.215,0,0,0-1.488-.248c-1.44,0-2.46.61-2.46,1.945v.019Zm-5.207-1.774a1.357,1.357,0,0,1,1.316-1.3,1.314,1.314,0,0,1,1.287,1.3h-2.6Zm1.488,3.662a3.2,3.2,0,0,0,2.117-.734.689.689,0,0,0,.229-.515.66.66,0,0,0-.668-.677.669.669,0,0,0-.42.134,2.03,2.03,0,0,1-1.23.41,1.413,1.413,0,0,1-1.488-1.192h3.424a.792.792,0,0,0,.811-.83,2.885,2.885,0,0,0-2.937-2.937,3.034,3.034,0,0,0-3.013,3.176v.019a3.045,3.045,0,0,0,3.185,3.147Zm-7.476-.935a.868.868,0,0,0,1.736,0V65.75c0-1.23.486-1.9,1.364-2.108a.794.794,0,0,0,.648-.811.786.786,0,0,0-.839-.839c-.515,0-.925.544-1.173,1.135v-.277a.868.868,0,0,0-1.736,0v4.5Zm-10.5,0a.868.868,0,1,0,1.736,0v-2.6c0-.82.42-1.24,1.078-1.24s1.049.42,1.049,1.24v2.6a.868.868,0,1,0,1.736,0V64.215a2,2,0,0,0-2.069-2.26,2.165,2.165,0,0,0-1.783.973v-.067a.868.868,0,0,0-1.736,0v4.5Zm-3.357,0a.868.868,0,0,0,1.736,0v-4.5a.868.868,0,0,0-1.736,0Zm-.1-6.733a.976.976,0,0,0,1.926,0V60.61a.978.978,0,0,0-1.926,0Zm-9.26,6.952a4.266,4.266,0,0,0,2.3.7c1.316,0,2.327-.62,2.327-1.964v-.019c0-1.116-.992-1.526-1.84-1.8-.658-.229-1.24-.391-1.24-.725v-.019c0-.238.219-.42.639-.42a3.255,3.255,0,0,1,1.316.391.615.615,0,0,0,.315.076.678.678,0,0,0,.7-.677.708.708,0,0,0-.41-.648A4.282,4.282,0,0,0,142.464,62a2,2,0,0,0-2.231,1.936v.019c0,1.183.963,1.583,1.821,1.831.668.2,1.259.334,1.259.706v.019c0,.277-.229.458-.725.458a3.235,3.235,0,0,1-1.65-.544.685.685,0,0,0-.343-.1.67.67,0,0,0-.687.677.69.69,0,0,0,.334.591Zm-5.417-2.947a1.357,1.357,0,0,1,1.316-1.3,1.314,1.314,0,0,1,1.287,1.3h-2.6Zm1.488,3.662a3.2,3.2,0,0,0,2.117-.734.689.689,0,0,0,.229-.515A.66.66,0,0,0,138,66.37a.669.669,0,0,0-.42.134,2.03,2.03,0,0,1-1.23.41,1.413,1.413,0,0,1-1.488-1.192h3.424a.792.792,0,0,0,.811-.83,2.885,2.885,0,0,0-2.937-2.937,3.034,3.034,0,0,0-3.013,3.176v.019a3.045,3.045,0,0,0,3.185,3.147Zm-6.246-.935a.868.868,0,1,0,1.736,0v-4.5a.868.868,0,1,0-1.736,0Zm-.1-6.733a.976.976,0,0,0,1.926,0V60.61a.978.978,0,0,0-1.926,0Zm-6.2,4.473a1.494,1.494,0,1,1,2.966,0v.019a1.494,1.494,0,1,1-2.966,0Zm4.673-4.444a.868.868,0,0,0-1.736,0v2.2a2.352,2.352,0,0,0-1.9-.906,2.859,2.859,0,0,0-2.775,3.147v.019a2.864,2.864,0,0,0,2.775,3.147,2.23,2.23,0,0,0,1.9-.992v.076a.868.868,0,0,0,1.736,0v-6.7Zm-11.7,3.977a1.357,1.357,0,0,1,1.316-1.3,1.314,1.314,0,0,1,1.287,1.3h-2.6Zm1.488,3.662a3.2,3.2,0,0,0,2.117-.734.689.689,0,0,0,.229-.515.66.66,0,0,0-.668-.677.669.669,0,0,0-.42.134,2.03,2.03,0,0,1-1.23.41,1.413,1.413,0,0,1-1.488-1.192H120.2a.792.792,0,0,0,.811-.83,2.885,2.885,0,0,0-2.937-2.937,3.034,3.034,0,0,0-3.013,3.176v.019a3.045,3.045,0,0,0,3.185,3.147Zm-13.694-.935a.868.868,0,0,0,1.736,0v-2.6c0-.82.4-1.24,1.049-1.24s1.011.42,1.011,1.24v2.6a.871.871,0,0,0,.868.868.857.857,0,0,0,.858-.868v-2.6c0-.82.4-1.24,1.049-1.24s1.011.42,1.011,1.24v2.6a.868.868,0,0,0,1.736,0V64.186c0-1.469-.772-2.241-2.06-2.241a2.526,2.526,0,0,0-2,.963,1.828,1.828,0,0,0-1.717-.963,2.169,2.169,0,0,0-1.793.973v-.067a.868.868,0,0,0-1.736,0v4.5Zm-5.579-2.727a1.357,1.357,0,0,1,1.316-1.3,1.314,1.314,0,0,1,1.287,1.3h-2.6Zm1.488,3.662a3.2,3.2,0,0,0,2.117-.734.689.689,0,0,0,.229-.515.66.66,0,0,0-.668-.677.669.669,0,0,0-.42.134,2.03,2.03,0,0,1-1.23.41,1.413,1.413,0,0,1-1.488-1.192h3.424a.792.792,0,0,0,.811-.83,2.885,2.885,0,0,0-2.937-2.937,3.034,3.034,0,0,0-3.013,3.176v.019a3.045,3.045,0,0,0,3.185,3.147ZM92.98,62.861a.868.868,0,0,1,1.736,0v.277c.248-.591.658-1.135,1.173-1.135a.786.786,0,0,1,.839.839.8.8,0,0,1-.648.811c-.877.2-1.364.877-1.364,2.108v1.612a.868.868,0,1,1-1.736,0v-4.5Z" transform="translate(-4.311 -2.772)" fill="#fff"/>
  </g>
</svg>
