<svg xmlns="http://www.w3.org/2000/svg" width="63.442" height="44" viewBox="0 0 63.442 44">
  <g id="device" transform="translate(-8 -80)">
    <path id="Path_165" data-name="Path 165" d="M67.86,93.3h-.512V83.581A3.585,3.585,0,0,0,63.767,80H15.674a3.585,3.585,0,0,0-3.581,3.581v15.86h-.512A3.585,3.585,0,0,0,8,103.023v17.4A3.585,3.585,0,0,0,11.581,124h9.209a3.585,3.585,0,0,0,3.581-3.581v-3.581h8.922l-.512,2.047h-2.27a1.023,1.023,0,0,0-1.023,1.023v3.07A1.023,1.023,0,0,0,30.512,124H48.93a1.023,1.023,0,0,0,1.023-1.023v-3.07a1.023,1.023,0,0,0-1.023-1.023H46.66l-.512-2.047h4.828v3.581A3.585,3.585,0,0,0,54.558,124h13.3a3.585,3.585,0,0,0,3.581-3.581V96.884A3.585,3.585,0,0,0,67.86,93.3ZM22.326,120.419a1.536,1.536,0,0,1-1.535,1.535H11.581a1.536,1.536,0,0,1-1.535-1.535v-17.4a1.536,1.536,0,0,1,1.535-1.535h.8l.79,2.37a1.023,1.023,0,0,0,.971.7h4.093a1.023,1.023,0,0,0,.971-.7l.79-2.37h.8a1.536,1.536,0,0,1,1.535,1.535Zm-7.79-18.93h3.3l-.342,1.023H14.878ZM47.907,120.93v1.023H31.535V120.93Zm-13.015-2.047.512-2.047h8.634l.512,2.047Zm16.084-4.093h-26.6V110.7h26.6Zm0-17.907v11.767h-26.6v-5.628a3.585,3.585,0,0,0-3.581-3.581H14.14V83.581a1.536,1.536,0,0,1,1.535-1.535H63.767A1.536,1.536,0,0,1,65.3,83.581V93.3H54.558A3.585,3.585,0,0,0,50.977,96.884Zm11.883-1.535-.342,1.023H59.9l-.342-1.023Zm6.536,25.07a1.536,1.536,0,0,1-1.535,1.535h-13.3a1.536,1.536,0,0,1-1.535-1.535V96.884a1.536,1.536,0,0,1,1.535-1.535H57.4l.79,2.37a1.023,1.023,0,0,0,.971.7h4.093a1.023,1.023,0,0,0,.971-.7l.79-2.37H67.86A1.536,1.536,0,0,1,69.4,96.884Z" fill="#00bcc5"/>
    <path id="Path_166" data-name="Path 166" d="M405.116,384h-4.093a1.023,1.023,0,1,0,0,2.047h4.093a1.023,1.023,0,1,0,0-2.047Z" transform="translate(-341.86 -265.116)" fill="#00bcc5"/>
    <path id="Path_167" data-name="Path 167" d="M53.116,384H49.023a1.023,1.023,0,0,0,0,2.047h4.093a1.023,1.023,0,0,0,0-2.047Z" transform="translate(-34.884 -265.116)" fill="#00bcc5"/>
    <path id="Path_168" data-name="Path 168" d="M243.07,328h-2.047a1.023,1.023,0,1,0,0,2.047h2.047a1.023,1.023,0,1,0,0-2.047Z" transform="translate(-202.326 -216.279)" fill="#00bcc5"/>
  </g>
</svg>