<svg xmlns="http://www.w3.org/2000/svg" width="49.738" height="48.176" viewBox="0 0 49.738 48.176">
  <g id="piggie-bank" transform="translate(0)">
    <g id="XMLID_169_" transform="translate(0 0)">
      <path id="XMLID_191_" d="M46.308,29.541a.971.971,0,1,0,0,1.943,1.487,1.487,0,0,1,0,2.974H44.465a17.672,17.672,0,0,0-9.3-14.612,10.531,10.531,0,0,0,.1-1.409,10.394,10.394,0,0,0-20.789,0c0,.224.009.446.023.667l-.052.021-4.3-2.5A1.767,1.767,0,0,0,7.489,18.16v6.226A17.527,17.527,0,0,0,4.583,29.65H2.7a2.7,2.7,0,0,0-2.7,2.7v6.169a2.7,2.7,0,0,0,2.7,2.7H4.583a17.748,17.748,0,0,0,6.459,8.624v4.323A2.064,2.064,0,0,0,13.1,56.218h3.62A2.054,2.054,0,0,0,18.557,55.1l1.064-2.069c.558.053,1.118.079,1.674.079h5.517c.556,0,1.116-.027,1.674-.079L29.55,55.1a2.054,2.054,0,0,0,1.833,1.119H35a2.064,2.064,0,0,0,2.062-2.062V49.834a17.658,17.658,0,0,0,7.4-13.433h1.844a3.43,3.43,0,0,0,0-6.86ZM24.869,9.986A8.452,8.452,0,0,1,32.2,22.639a15.19,15.19,0,0,0-4.457-1.6,2.839,2.839,0,0,0,.346-1.355,3.127,3.127,0,0,0-3.222-3.014A1.191,1.191,0,0,1,23.59,15.6a1.3,1.3,0,0,1,2.559,0,.971.971,0,0,0,1.943,0,3.049,3.049,0,0,0-2.251-2.874v-.135a.971.971,0,1,0-1.943,0v.135A3.049,3.049,0,0,0,21.647,15.6a3.127,3.127,0,0,0,3.222,3.014,1.191,1.191,0,0,1,1.279,1.071,1.3,1.3,0,0,1-2.559,0,.971.971,0,0,0-1.943,0,2.838,2.838,0,0,0,.348,1.359,15.185,15.185,0,0,0-4.454,1.6A8.452,8.452,0,0,1,24.869,9.986ZM35.553,48.517a.972.972,0,0,0-.431.807v4.832a.119.119,0,0,1-.119.119h-3.62a.119.119,0,0,1-.106-.064l-1.371-2.666a.971.971,0,0,0-.992-.519,15.973,15.973,0,0,1-2.1.14H21.3a15.972,15.972,0,0,1-2.1-.14.97.97,0,0,0-.992.519l-1.371,2.666a.118.118,0,0,1-.106.064H13.1a.119.119,0,0,1-.119-.119V49.325a.972.972,0,0,0-.431-.807A15.789,15.789,0,0,1,6.22,39.959a.971.971,0,0,0-.93-.692H2.7a.754.754,0,0,1-.753-.753V36.4H3.3a.971.971,0,1,0,0-1.943H1.943V32.345a.754.754,0,0,1,.753-.753H5.29a.971.971,0,0,0,.93-.692,15.614,15.614,0,0,1,2.986-5.545.971.971,0,0,0,.226-.622V18.464L13.9,21.053a.972.972,0,0,0,.89.044l.029-.013A10.277,10.277,0,0,0,15.9,23.691a15.287,15.287,0,0,0-1.8,1.539A.972.972,0,0,0,15.476,26.6a13.316,13.316,0,0,1,18.811,0,.971.971,0,0,0,1.374-1.374,15.29,15.29,0,0,0-1.815-1.552,10.29,10.29,0,0,0,.858-1.867,15.74,15.74,0,0,1,.85,26.705Z" transform="translate(0 -8.043)" fill="#00bcc5"/>
      <path id="XMLID_733_" d="M114.641,219.96a.972.972,0,1,0,.687.285A.973.973,0,0,0,114.641,219.96Z" transform="translate(-102.628 -199.373)" fill="#00bcc5"/>
    </g>
  </g>
</svg>