<svg xmlns="http://www.w3.org/2000/svg" width="41.981" height="52.698" viewBox="0 0 41.981 52.698">
  <g id="urgent-care" transform="translate(-11.859 -2.4)">
    <g id="Group_209" data-name="Group 209" transform="translate(11.859 35.639)">
      <path id="Path_156" data-name="Path 156" d="M18.1,80.644a.51.51,0,0,1-.283-.057,1.067,1.067,0,0,1-.735-.565L12,70.184a1.093,1.093,0,0,1,.4-1.47l11.026-6.9a4.127,4.127,0,0,1,2.431-.622l11.2.283a3.488,3.488,0,0,1,.283,6.955l-4.015.452a.769.769,0,0,0-.565.4.7.7,0,0,0,0,.679h0a.784.784,0,0,0,.679.4l6.5.283c1.187-.848,5.654-3.9,8.312-5.711a3.6,3.6,0,0,1,4.919.9l.057.057a3.482,3.482,0,0,1-.792,4.806L42.246,77.987a5.888,5.888,0,0,1-4.523,1.074L25,77.139a3.266,3.266,0,0,0-2.488.622L18.78,80.475A1.506,1.506,0,0,1,18.1,80.644ZM14.54,70.071l4.015,7.746,2.658-1.922a5.632,5.632,0,0,1,4.128-1.018L38.062,76.8a4.019,4.019,0,0,0,2.884-.679l10.121-7.238a1.193,1.193,0,0,0,.283-1.7l-.057-.057a1.272,1.272,0,0,0-1.753-.339c-3.053,2.205-8.651,5.994-8.651,5.994a1.607,1.607,0,0,1-.679.226l-6.9-.283a3.154,3.154,0,0,1-2.6-1.64h0a3,3,0,0,1,.057-2.771,3.106,3.106,0,0,1,2.318-1.583l4.015-.452a1.2,1.2,0,0,0,1.074-1.3,1.325,1.325,0,0,0-1.187-1.187l-11.252-.283a1.879,1.879,0,0,0-1.131.283Z" transform="translate(-11.859 -61.185)" fill="#00bcc5"/>
    </g>
    <g id="Group_211" data-name="Group 211" transform="translate(27.203 12.295)">
      <g id="Group_210" data-name="Group 210" transform="translate(0 0)">
        <path id="Path_157" data-name="Path 157" d="M50.816,41.273a2.838,2.838,0,0,1-.679-.113C41.2,37.6,38.207,30.926,39.168,25.894,39.847,22.275,42.5,19.9,45.84,19.9a9.286,9.286,0,0,1,4.976,1.64,9.111,9.111,0,0,1,4.919-1.64c3.336,0,5.994,2.318,6.672,5.937h0c.961,4.976-2.036,11.648-10.913,15.267A.948.948,0,0,1,50.816,41.273ZM45.9,22.162c-2.262,0-3.958,1.583-4.467,4.184-.792,4.128,1.809,9.612,9.443,12.666,7.577-3.166,10.178-8.651,9.386-12.722-.509-2.544-2.205-4.128-4.467-4.128a7.444,7.444,0,0,0-4.241,1.64,1.192,1.192,0,0,1-1.357,0A7.744,7.744,0,0,0,45.9,22.162Z" transform="translate(-38.996 -19.9)" fill="#00bcc5"/>
      </g>
    </g>
    <g id="Group_212" data-name="Group 212" transform="translate(37.836 2.4)">
      <path id="Path_158" data-name="Path 158" d="M58.931,8.45A1.134,1.134,0,0,1,57.8,7.319V3.531a1.131,1.131,0,0,1,2.262,0V7.319A1.134,1.134,0,0,1,58.931,8.45Z" transform="translate(-57.8 -2.4)" fill="#00bcc5"/>
    </g>
    <g id="Group_213" data-name="Group 213" transform="translate(47.496 4.314)">
      <path id="Path_159" data-name="Path 159" d="M76.024,11.843a1.651,1.651,0,0,1-.509-.113,1.133,1.133,0,0,1-.509-1.527l1.922-3.788a1.138,1.138,0,1,1,2.036,1.018l-1.922,3.788A1.191,1.191,0,0,1,76.024,11.843Z" transform="translate(-74.885 -5.785)" fill="#00bcc5"/>
    </g>
    <g id="Group_214" data-name="Group 214" transform="translate(26.236 4.314)">
      <path id="Path_160" data-name="Path 160" d="M40.347,11.843a1.191,1.191,0,0,1-1.018-.622L37.406,7.433a1.138,1.138,0,0,1,2.036-1.018L41.364,10.2a1.133,1.133,0,0,1-.509,1.527A1.651,1.651,0,0,1,40.347,11.843Z" transform="translate(-37.285 -5.785)" fill="#00bcc5"/>
    </g>
  </g>
</svg>