<svg xmlns="http://www.w3.org/2000/svg" width="58.979" height="63.5" viewBox="0 0 58.979 63.5">
  <g id="virtaully-consult" transform="translate(-5.011 -2.75)">
    <path id="Path_161" data-name="Path 161" d="M12.38,33.417a1.924,1.924,0,1,0-1.92,1.92A1.926,1.926,0,0,0,12.38,33.417Z" fill="#00bcc5"/>
    <path id="Path_162" data-name="Path 162" d="M44.145,54.913a3.318,3.318,0,1,0,3.318,3.318A3.325,3.325,0,0,0,44.145,54.913Zm0,5.137a1.818,1.818,0,1,1,1.818-1.818A1.823,1.823,0,0,1,44.145,60.05Z" fill="#00bcc5"/>
    <path id="Path_163" data-name="Path 163" d="M40.559,8.1h7.166a.75.75,0,0,0,0-1.5H40.559a.75.75,0,0,0,0,1.5Z" fill="#00bcc5"/>
    <path id="Path_164" data-name="Path 164" d="M15.9,33.417a5.445,5.445,0,1,0-6.2,5.384V50.529a3.391,3.391,0,0,0,3.388,3.387H25.043v7.709a4.631,4.631,0,0,0,4.625,4.625H58.614a4.631,4.631,0,0,0,4.625-4.625V20.6a.75.75,0,0,0,.75-.75V18.7a.75.75,0,0,0-.75-.75V15.894a.75.75,0,0,0,.75-.75V13.99a.75.75,0,0,0-.75-.75V7.375A4.631,4.631,0,0,0,58.614,2.75H29.668a4.631,4.631,0,0,0-4.625,4.625v3.877a.75.75,0,0,0-.749.75v2.38a.75.75,0,0,0,.749.75V52.416H13.094a1.889,1.889,0,0,1-1.888-1.887V38.8A5.446,5.446,0,0,0,15.9,33.417ZM26.543,7.375A3.129,3.129,0,0,1,29.668,4.25H58.614a3.129,3.129,0,0,1,3.125,3.125v54.25a3.129,3.129,0,0,1-3.125,3.125H29.668a3.129,3.129,0,0,1-3.125-3.125V53.916H27.76a3.391,3.391,0,0,0,3.388-3.387V43.5a1.887,1.887,0,1,1,3.774,0v7.027a3.391,3.391,0,0,0,3.388,3.387h1A3.391,3.391,0,0,0,42.7,50.529v-9.88A2.412,2.412,0,0,0,44.4,38.324V36.79c3.2-.789,7.606-3.946,5.375-6.545a8.684,8.684,0,0,0,.755-3.5v-7.92a2.133,2.133,0,0,0-2.13-2.131H47.339a2.375,2.375,0,1,0,0,1.5H48.4a.631.631,0,0,1,.63.631v7.92a7.2,7.2,0,0,1-.54,2.712,2.444,2.444,0,0,0-2.5.8c-.09.1-.18.209-.273.3a5.46,5.46,0,0,1-4.2,1.564,5.214,5.214,0,0,1-3.632-1.88,2.446,2.446,0,0,0-2.5-.791,7.583,7.583,0,0,1-.616-2.954v-7.68a.644.644,0,0,1,.64-.631h1.033a2.4,2.4,0,1,0,0-1.5H35.414a2.138,2.138,0,0,0-2.14,2.131V26.5a9.087,9.087,0,0,0,.835,3.75,2.483,2.483,0,0,0-.007,3.209,10.2,10.2,0,0,0,5.393,3.348v1.515A2.45,2.45,0,0,0,41.2,40.65v9.88a1.889,1.889,0,0,1-1.888,1.887h-1a1.889,1.889,0,0,1-1.888-1.887V43.5a3.387,3.387,0,1,0-6.774,0v7.027a1.889,1.889,0,0,1-1.888,1.887H26.543V7.375ZM35.359,31.1a.982.982,0,0,1,1.385.113,6.8,6.8,0,0,0,10.041.4c.157-.157.908-1.231,1.751-.516,2.137,1.833-7.457,8.261-13.29,1.385A.985.985,0,0,1,35.359,31.1Zm5.635,5.953c.063.005.124.018.187.022q.359.025.716.024c.339,0,.675-.017,1.008-.049v1.269a.954.954,0,0,1-.955.955.956.956,0,0,1-.955-.955V37.058ZM45.972,17.44a.873.873,0,1,1-.871-.876A.874.874,0,0,1,45.972,17.44Zm-8.156,0a.9.9,0,1,1,.9.9A.9.9,0,0,1,37.815,17.44ZM6.511,33.417a3.945,3.945,0,1,1,3.948,3.942A3.953,3.953,0,0,1,6.511,33.417Z" fill="#00bcc5"/>
  </g>
</svg>
